<?xml version="1.0" standalone="no"?>
<!DOCTYPE svg PUBLIC "-//W3C//DTD SVG 1.1//EN" "http://www.w3.org/Graphics/SVG/1.1/DTD/svg11.dtd" >
<svg xmlns="http://www.w3.org/2000/svg">
<metadata></metadata>
<defs>
<font id="original_olinda_styledisplay" horiz-adv-x="1363" >
<font-face units-per-em="2048" ascent="1536" descent="-512" />
<missing-glyph horiz-adv-x="571" />
<glyph horiz-adv-x="2048" />
<glyph horiz-adv-x="2048" />
<glyph unicode="&#xd;" horiz-adv-x="2048" />
<glyph unicode=" "  horiz-adv-x="571" />
<glyph unicode="&#x09;" horiz-adv-x="571" />
<glyph unicode="&#xa0;" horiz-adv-x="571" />
<glyph unicode="!" horiz-adv-x="464" d="M95 1092.5q-1 56.5 0 119t3 150.5q33 20 59.5 32.5t53.5 20.5t56.5 13.5t66.5 11.5q10 -178 18 -302t12.5 -211t6.5 -148.5t2 -116t-3 -110.5t-8 -134q-59 -6 -117.5 -7t-117.5 -5q-8 152 -14.5 257t-10.5 182t-5 134t-2 113.5zM156 70q0 49 3 101t3 103h200l17 -229 q-16 -12 -30.5 -22.5t-35.5 -22.5q-47 12 -71.5 20.5t-40 14.5t-24.5 14t-21 21z" />
<glyph unicode="&#x22;" horiz-adv-x="579" d="M76 1079q0 39 2 86t6 129l95 -10t83 -47q-8 -59 -8 -115.5t3 -111t5 -110.5t0 -116q-45 23 -86 46.5t-86 46.5q-6 74 -10 118.5t-4 83.5zM324 1079q0 39 2 86t6 129l95 -10t83 -47q-8 -59 -8 -115.5t3 -111t5 -110.5t0 -116q-45 23 -86 46.5t-86 46.5q-6 74 -10 118.5 t-4 83.5z" />
<glyph unicode="'" horiz-adv-x="274" d="M43 1079q0 39 2 86t6 129l95 -10t83 -47q-8 -59 -8 -115.5t3 -111t5 -110.5t0 -116q-45 23 -86 46.5t-86 46.5q-6 74 -10 118.5t-4 83.5z" />
<glyph unicode="*" horiz-adv-x="970" d="M129 1210q39 12 76 25.5t74 28.5q94 -84 159.5 -141.5t113.5 -100.5t82 -75t66.5 -63.5t68.5 -67.5l87 -87q-8 -16 -18.5 -28.5t-22.5 -20.5t-28 -16.5t-39 -20.5q-113 98 -189 166t-130 116t-91 82.5t-68.5 65.5t-63.5 62.5t-77 74.5zM190 705q98 115 164 191.5 t112 132.5t80 94t63.5 70t61 64.5t72.5 79.5q12 -39 26.5 -75.5t31.5 -73.5q-82 -96 -137.5 -164t-98.5 -116t-73.5 -82.5t-61.5 -68.5t-65.5 -70t-83.5 -89q-16 8 -28.5 17.5t-22 20.5t-17 28.5t-23.5 40.5zM422 1116q0 53 1 100.5t3 93.5t6 113q35 -20 72 -40.5t74 -39.5 q4 -131 5 -223t2 -158.5t1 -116.5t-1 -97.5t-3 -100.5t-4 -125q-20 -8 -36 -9t-32 2t-34.5 11.5t-41.5 16.5q-4 156 -7 263t-4 182t-1 128z" />
<glyph unicode="+" horiz-adv-x="1226" d="M158 598.5q-2 15.5 1 30t10 32t13 44.5q150 6 251.5 11t174 9t122.5 5t94 1t89 -1t109 1q-20 -35 -37.5 -70.5t-32.5 -72.5q-127 -6 -214 -11.5t-151.5 -7.5t-110.5 -3l-92 -2t-96 0t-122 1q-6 18 -8 33.5zM504 804q0 50 1 94t3 89t2 109q35 -20 69.5 -39t71.5 -35 q2 -127 5 -214t4.5 -151.5t1.5 -110.5t-1.5 -92t-3.5 -96.5t-4 -121.5q-18 -6 -33.5 -7.5t-30 1.5t-31.5 10.5t-42 15.5q-4 150 -6 251t-4 174t-2 123z" />
<glyph unicode="," horiz-adv-x="610" d="M156 -176q25 57 37 113.5t20 112.5t16.5 113.5t26.5 119.5q94 -74 197 -142q-6 -78 -11.5 -123t-13.5 -84.5t-22 -87t-39 -129.5q-35 12 -64 19.5t-54.5 17.5t-48 25.5t-44.5 44.5z" />
<glyph unicode="-" horiz-adv-x="1173" d="M133 621q143 8 243.5 15t172.5 10t122 5t94 1t91 -3t111 -4q4 -47 6 -97t6 -97q-125 -8 -211 -12.5t-148.5 -7.5t-109.5 -5t-92 -2t-96.5 1t-122.5 3q-18 27 -28.5 47.5t-18 42t-11.5 46t-8 57.5z" />
<glyph unicode="." horiz-adv-x="415" d="M68 281q39 0 70.5 1t60 1t56.5 -5.5t62 -17.5l29 -219q-31 6 -57.5 2t-52 -11t-52 -12.5t-57.5 -1.5q-20 45 -31.5 73t-17.5 52.5t-7 54.5t-3 83z" />
<glyph unicode="/" horiz-adv-x="946" d="M94 164q109 209 184.5 353.5t129 245.5t92.5 172t74.5 131t72.5 121.5t90 145.5q33 -51 67 -105t70 -106q-94 -178 -158.5 -301t-112.5 -213t-85 -155.5t-72.5 -128t-77.5 -131t-100 -164.5q-31 6 -52 15t-40.5 25.5t-38 40t-43.5 54.5z" />
<glyph unicode="0" horiz-adv-x="1130" d="M80 541q4 137 9 272t11 270q94 82 196.5 128t210 60.5t221.5 -1t235 -53.5v-17q49 -23 66.5 -71t16 -106t-11.5 -118.5t-12 -105.5q-2 -39 0 -100.5t4 -133t2 -146.5t-6 -141.5t-19.5 -120t-39.5 -79.5q-14 -4 -25 -6q-23 -8 -33 -4v-5q-113 -35 -209 -49t-215 -24 q-113 57 -182.5 104t-112.5 104.5t-65.5 137.5t-40.5 205zM324 948q4 -82 3 -164t3 -158.5t19.5 -144t53 -118t102 -79t167.5 -28.5q20 6 35.5 9t27.5 7q20 84 39 172t26 175.5t-1 171t-43 161.5q-37 0 -76 12.5t-94 36.5q-66 -12 -132.5 -24t-129.5 -29z" />
<glyph unicode="1" horiz-adv-x="886" d="M84 747.5q4 20.5 20.5 64.5t49.5 116.5t86 185.5q55 59 88.5 97t55.5 60.5t36 31t32.5 7.5t45 -9.5t73.5 -18.5l150 -270q8 -61 27.5 -161.5t35 -215.5t19.5 -230.5t-19.5 -208t-83 -148.5t-168.5 -52q-12 129 -16 259t-8 259t-14.5 258t-34.5 256q-41 -61 -75 -126.5 t-60.5 -122t-50 -98.5t-45 -59.5t-43 -3t-44.5 71.5q-18 10 -32.5 14.5t-21.5 13.5t-3 29.5z" />
<glyph unicode="2" horiz-adv-x="1126" d="M77 191.5q1 15.5 5 38t7 57.5t5 94q84 55 169 126t174 134.5t182.5 108.5t191.5 49q-12 70 -49 107.5t-87 50t-109.5 4t-117 -30t-109.5 -52t-87 -63.5q-41 -37 -69.5 -37t-46 23.5t-26 64.5t-8.5 87t6.5 90t18.5 73q35 31 76 55.5t85 44t87 37t80 33.5q131 -18 259 -16 t261 -17q20 -74 40.5 -155.5t23.5 -163.5t-19.5 -159t-85.5 -142q-53 0 -101.5 -25.5t-95.5 -63.5t-93 -82t-93 -82t-95 -63.5t-102 -23.5q0 -16 31 -24.5t79 -11.5t107.5 -3t121 -1t118.5 -5t98 -17q31 -66 48.5 -101.5t28.5 -55t20.5 -29.5t23.5 -25l-33 -32 q-219 6 -435 12t-435 12q-20 57 -31.5 90t-15.5 53.5t-3 36z" />
<glyph unicode="3" horiz-adv-x="1343" d="M52 1080q-5 40 22 108q47 43 120.5 69.5t137.5 26.5q150 8 258 3t190 -18.5t140.5 -32.5t107.5 -42t93 -44.5t96 -37.5q10 -31 16 -67.5t8 -75.5t2 -77t-2 -71q-51 -23 -101 -32t-99.5 -16t-99.5 -17.5t-103 -30.5q6 -12 11 -25.5t9 -25.5q100 -35 199.5 -67t199.5 -66 q4 -20 -3 -55t-16 -74t-15 -74t-2 -55q-125 -96 -249 -153.5t-246 -86.5t-239.5 -34t-230.5 5q-10 -2 -29.5 4.5t-39 13.5l-39 14t-29.5 7q-12 39 -19.5 59.5t-10.5 36t-3 31v43.5q49 25 79 24t55.5 -9.5t59 -13.5t93.5 12q150 27 239.5 55t146 54t93.5 48.5t84 38.5 q-84 37 -165 47t-144.5 27.5t-102.5 59.5t-39 143q63 29 129 66.5t130.5 77.5l129 80t130.5 71q-31 16 -98.5 9t-175 -20.5t-257 -25t-346.5 -0.5q0 8 -18.5 18t-35 32.5t-21.5 62.5z" />
<glyph unicode="4" horiz-adv-x="1349" d="M72 1016q0 80 6 146.5t18 107.5q94 27 147.5 30t83 -6.5t45 -23t38.5 -21.5q8 -39 14 -104.5t12 -138t13.5 -138t17.5 -104.5q96 10 194.5 16t196.5 13l37 497q74 6 150.5 11.5t154.5 9.5q18 -326 36.5 -650.5t41.5 -654.5q-86 -4 -171 -7t-171 -9q-16 20 -26.5 35.5 t-21.5 51.5t-27.5 101.5t-43.5 186.5q-80 10 -172 31.5t-188.5 41t-188.5 30.5t-172 3q-2 27 -5 86t-8 134t-8 160t-3 165z" />
<glyph unicode="5" horiz-adv-x="1191" d="M77 1112q5 57 36 113q109 12 214 33.5t211.5 41t212 31.5t214.5 4v-211q-74 2 -147 -14t-143.5 -36.5t-143 -37t-146.5 -14.5q0 -74 2 -108.5t9 -48t20.5 -13.5t36.5 -2q31 -4 71.5 5t89 21.5t101.5 20.5t109.5 3t112.5 -29.5t112 -79.5q23 -86 41 -182.5t13 -188.5 t-43 -173t-126 -134q-4 -29 -53.5 -47.5t-122 -32t-158.5 -18.5t-164 -6t-137.5 3.5t-79.5 10.5q-2 27 -23.5 51t-42 55t-28.5 76t18 114q14 -4 65.5 -6t123 -1t154.5 5.5t157 11.5t131 17t80 25q-4 59 -8 117.5t-8 119.5q-61 27 -122 27t-122.5 -9.5t-120.5 -19.5 t-116.5 -3t-110.5 40t-103 109q-16 61 -34.5 122.5t-27.5 121t-4 116.5z" />
<glyph unicode="6" horiz-adv-x="1226" d="M95 847q-5 120 0.5 228.5t23.5 192.5q53 4 106.5 11t106.5 13q23 -66 36 -106.5t23 -84.5t20.5 -106.5t28.5 -173.5q33 -10 107 -10t163 2t184 3t171 -3q51 -78 67.5 -163t14.5 -173t-11.5 -179t-11.5 -181q-72 -25 -145.5 -48.5t-151.5 -45.5q-6 6 -13 14t-15 18 q-135 -37 -257 -60.5t-261 -29.5q-37 72 -69 173.5t-56.5 219t-40 243.5t-20.5 246zM483 489q16 -96 41 -192q39 -14 79 -11t80 14t80 26.5t81 27.5q-4 43 -7 88t-10 88q-86 -10 -172 -20.5t-172 -20.5z" />
<glyph unicode="7" horiz-adv-x="1191" d="M84 985q6 57 5 94t3 61.5t19.5 39t54.5 30.5q59 27 146 45.5t177.5 27.5t173 7t136.5 -14q74 4 147.5 9t147.5 11q-18 -55 -19.5 -63t10.5 -2q23 -68 17 -167t-30.5 -215t-62.5 -239t-78 -236.5t-76 -212t-56 -161.5q-53 18 -101.5 38.5t-101.5 43.5q31 193 51.5 326 t33.5 221t19.5 139t8.5 82t1 48t-3 38q-25 -6 -67 -15.5t-77 -5.5q-53 16 -114.5 22.5t-125 10.5t-125 11.5t-114.5 25.5z" />
<glyph unicode="8" horiz-adv-x="1181" d="M90 806.5q-2 29.5 2 57.5q0 162 25 277q6 0 12 2t12 2q6 29 11.5 55.5t9.5 54.5q72 12 150.5 7t150.5 6q2 -2 34.5 -1t82 4t109 6t112.5 6t95 4t58 1q33 -96 61.5 -233t44 -287t14.5 -298t-25 -265q-4 -29 -4.5 -58.5t-0.5 -62.5q-141 -43 -276 -86q-6 6 -12 14t-13 15 q-127 -31 -237.5 -53.5t-239.5 -24.5q-35 66 -63.5 158t-51 197.5t-37 220t-18.5 223.5q-4 29 -6 58.5zM381 844q80 0 160.5 -2t160.5 -6q-4 47 -6 90t-6 90q-35 18 -71.5 21t-74.5 -3t-77 -15t-78 -15q0 -41 -2 -80t-6 -80zM455 426q6 -43 14 -86t18 -86q35 -14 72 -12 t75 12t76 24.5t74 24.5q-6 41 -9 81t-7 85q-78 -14 -156.5 -23.5t-156.5 -19.5z" />
<glyph unicode="9" horiz-adv-x="1155" d="M97 807q5 82 27.5 163t53.5 161.5t55 162.5q74 4 149 8.5t148 8.5q6 -10 10.5 -19.5t10.5 -21.5q133 0 247.5 -7.5t245.5 -37.5q16 -76 10.5 -177.5t-29.5 -214t-59.5 -231.5t-77.5 -230.5t-84 -208.5t-79 -167q-27 2 -61.5 7t-70.5 9t-71 8.5t-61 8.5q-4 68 13.5 110.5 t42 89.5t50 110.5t35.5 168.5q-27 16 -80 30.5t-120.5 30t-140.5 32.5t-140 40q-29 84 -24 166zM403 844q166 -24 326 -49q4 47 6 93t6 95q-33 23 -69.5 30t-76.5 6t-82 -5t-81 -4q-6 -41 -12 -83t-17 -83z" />
<glyph unicode=":" horiz-adv-x="415" d="M45 520q16 27 21.5 53.5t7.5 53t6 53.5t18 55q51 4 81 5t54.5 -2t53.5 -12.5t78 -25.5q-12 -37 -21.5 -66.5t-21 -56t-25.5 -52t-37 -52.5zM68 281q39 0 70.5 1t60 1t56.5 -5.5t62 -17.5l29 -219q-31 6 -57.5 2t-52 -11t-52 -12.5t-57.5 -1.5q-20 45 -31.5 73t-17.5 52.5 t-7 54.5t-3 83z" />
<glyph unicode=";" horiz-adv-x="415" d="M2 -162q25 57 37 113.5t20.5 113t16.5 114t26 118.5q94 -74 197 -141q-6 -78 -11 -123t-13.5 -85t-22.5 -87t-39 -129q-35 12 -63.5 19t-54 17.5t-48 26t-45.5 43.5zM45 520q16 27 21.5 53.5t7.5 53t6 53.5t18 55q51 4 81 5t54.5 -2t53.5 -12.5t78 -25.5 q-12 -37 -21.5 -66.5t-21 -56t-25.5 -52t-37 -52.5z" />
<glyph unicode="&#x3c;" horiz-adv-x="1064" d="M201 410q4 2 13 29.5t18.5 59t16.5 59.5t5 32q61 86 99 136t75 91t87 86t138 121q33 -39 61.5 -67.5t50 -57.5t37 -63.5t23.5 -85.5q-86 -59 -147.5 -132t-120.5 -145q43 -49 89 -92t94 -84t94.5 -86t89.5 -96q-78 -31 -154 -60.5t-154 -60.5q-84 66 -132 105.5t-87 78.5 t-81.5 90.5t-114.5 141.5z" />
<glyph unicode="=" horiz-adv-x="1341" d="M242 621q143 8 243.5 15t172 10t121.5 5t94.5 1t91.5 -3t110 -4q4 -47 6 -97t6 -97q-125 -8 -210.5 -12.5t-148 -7.5t-110 -5t-92.5 -2t-96 1t-123 3q-18 27 -28.5 47.5t-17.5 42t-11 46t-8 57.5zM242 971q143 8 243.5 15t172 10t121.5 5.5t94.5 1t91.5 -3.5t110 -4 q4 -47 6 -97t6 -97q-125 -8 -210.5 -12.5t-148 -7.5t-110 -5t-92.5 -2t-96 1t-123 3q-18 27 -28.5 47.5t-17.5 42t-11 46t-8 57.5z" />
<glyph unicode="&#x3e;" horiz-adv-x="1064" d="M156 913q78 31 153.5 61t153.5 60q84 -66 132 -105.5t87 -78.5t82 -90.5t115 -141.5q-4 -2 -13.5 -29.5t-18.5 -59t-16.5 -59.5t-5.5 -32q-61 -86 -99 -136t-75 -91t-87 -86t-138 -121q-33 39 -61.5 67.5t-50 57.5t-37 63.5t-23.5 86.5q86 59 147.5 131.5t120.5 144.5 q-43 49 -89 92t-94 84t-94 86t-89 96z" />
<glyph unicode="?" horiz-adv-x="997" d="M82 1159q4 53 8 100.5t10 88.5q113 23 211.5 30.5t212.5 7.5l10.5 17.5t8.5 15.5q66 -2 127 -6t127 -6q18 -72 44.5 -141.5t45 -138t22.5 -139t-18 -142.5q-59 -18 -133 -35.5t-143.5 -35t-127 -34t-81.5 -32.5q8 -90 13 -141.5t7 -87.5t0 -70.5t-4 -90.5q-45 -4 -88 -9 t-84 -13q-31 57 -57.5 137t-48 171t-36 188.5t-20.5 193.5q141 10 280.5 17.5t280.5 17.5q-14 35 -29.5 69.5t-25.5 69.5q-129 2 -262 8.5t-250 -10.5zM238 223q33 0 59.5 1t51 1t48 -3t52.5 -13l18 -178q-25 4 -45.5 0t-41 -10.5t-42 -10.5t-47.5 0q-16 37 -25.5 59.5 t-14.5 42t-8 44t-5 67.5z" />
<glyph unicode="A" horiz-adv-x="1206" d="M70 1174q18 6 36.5 12t38.5 12v100q205 -4 409 -7t411 -9l36 -35q-35 -12 -69 -33q18 -10 36.5 -20t41.5 -20q31 -252 60.5 -502t64.5 -502q-63 -18 -100.5 -28.5t-63 -13.5t-51 -3t-68.5 4q-31 82 -58.5 163t-58.5 165h-295q-4 -106 -9 -210t-11 -210 q-70 -10 -138.5 -18.5t-136.5 -18.5q-6 129 -20 278.5t-27 303.5q-14 154 -23 306q-6 105 -6 202q0 43 1 84zM352 993q6 -59 14.5 -120.5t18.5 -122.5h375v243h-408z" />
<glyph unicode="B" horiz-adv-x="1318" d="M74 1060q4 89 18 157q117 29 219.5 34.5t220.5 5.5q4 8 7.5 16.5t9.5 18.5q66 -4 131 -8t131 -8q14 -51 32.5 -100.5t35 -98.5t30 -97t17.5 -97q45 0 87 2t83 6q45 -37 75.5 -98.5t49 -136t25.5 -158.5q5 -65 5 -129v-37q-2 -82 -12 -156t-27 -129q-46 -25 -122 -31 q-36 -3 -76 -3q-43 -1 -90 3q-90 6 -186.5 19.5t-187.5 31t-168 35t-126 27.5h-12q-33 61 -60.5 148.5t-50 185.5t-37 202.5t-20.5 204.5q-4 60 -4 117q0 37 2 73zM362 999q0 -43 2 -82.5t7 -80.5q72 12 144.5 21t143.5 20q-6 39 -14 74.5t-12 74.5q-35 0 -71 4t-70.5 4 t-67.5 -7t-62 -28zM406 557q8 -84 14 -134t8 -86q1 -24 1 -46v-21q-1 -30 -3 -73q45 12 80 25.5t35 29.5q12 8 34.5 5t70.5 -10t130 -13q31 -2 69 -2q62 0 144 6q-12 145 -18 224t-28.5 116.5t-75 48t-152.5 18.5q-49 -12 -97.5 -23.5t-90.5 -22.5t-73.5 -22.5t-47.5 -19.5z " />
<glyph unicode="C" horiz-adv-x="1054" d="M86 555q6 135 11 270.5t14 266.5q94 86 194.5 132t208.5 60q52 7 104 7q58 0 116 -8q112 -15 233 -54q4 -29 8 -58.5t10 -64.5q-27 0 -51 -6q-10 -25 -17.5 -49.5t-17.5 -53.5q-51 -18 -87 -25q-28 -5 -53 -5h-15q-32 2 -67.5 14t-84.5 33q-66 -12 -132.5 -25.5 t-133.5 -25.5q4 -80 4 -163t5 -160t20.5 -144.5t53 -117.5t101 -79t166.5 -29q31 10 49 15.5t35.5 7.5t38 2h57.5q14 -33 24.5 -57.5t17.5 -48t10 -49t3 -60.5q-111 -35 -208 -50.5t-216 -23.5q-113 57 -182 103.5t-111 104.5t-66 138t-42 203z" />
<glyph unicode="D" horiz-adv-x="1312" d="M70 950q12 166 65 320l864 49l9 -88l108 -74q4 -74 26.5 -134t43.5 -135q20 -74 28 -176q2 -27 3 -59q0 -85 -17 -198q-4 -4 -4 -6v-3q-16 -31 -36.5 -74.5t-56.5 -89.5t-94.5 -91.5t-150.5 -81.5q-76 -35 -135 -48.5t-109.5 -18.5t-95.5 -8t-92 -18q-61 -12 -123 -26.5 t-119 -30.5q-35 154 -66.5 320.5t-45.5 335.5q-8 91 -8 181q0 77 6 154zM356 983q2 -23 7.5 -74t12.5 -115.5t14 -136t14.5 -137t12.5 -116.5t9 -74q59 4 92 11t61.5 13t61.5 11.5t92 9.5q49 6 93 36.5t75 75.5t47 101q10 36 10 72q0 20 -4 40q-8 56 -44 107t-105 88 q-100 53 -218 75q-82 16 -161 16q-35 0 -70 -3zM1196 438q0 -4 4 -4v9.5t4 11.5q-4 -4 -4 -6.5t-4 -2.5v-8z" />
<glyph unicode="E" horiz-adv-x="1210" d="M86 614v62q0 110 5 221q7 143 30 299q98 35 226 62.5t261 34.5q36 2 71 2q96 0 188 -14q126 -19 223 -77q-29 -20 -43.5 -31.5t-22.5 -22.5t-12 -24.5t-8 -35.5l-340 -32t-342 -34q6 -63 12 -126.5t16 -129.5q74 -8 119 -12t89 -4t103.5 2t161.5 6q6 -68 14.5 -135.5 t14.5 -135.5q-111 -6 -219.5 -15t-218.5 -21q0 -43 2 -91.5t6 -95.5h357t358 -4q0 -43 -2 -70.5t-9.5 -52t-21.5 -49t-39 -61.5q-219 -12 -434 -22.5t-436 -26.5q-37 31 -74 49q-14 158 -23.5 301.5t-11.5 283.5z" />
<glyph unicode="F" horiz-adv-x="1196" d="M108 672q-1 48 -1 95q-1 111 7 221q10 157 48 302q240 6 474 14t474 15l-20 -217q-27 -23 -79.5 -37t-119 -22.5t-140 -12.5t-143 -6t-130 -2t-99.5 -4q16 -78 28.5 -155t26.5 -154l350 -41v-88q-88 -29 -175 -60t-175 -65q10 -59 15.5 -112.5t5.5 -104t-4.5 -103.5 t-12.5 -112q-29 -4 -51 -8.5t-42.5 -9.5t-43 -9t-51.5 -6q-29 16 -58.5 30.5t-58.5 24.5q-2 152 -11.5 310.5t-13.5 316.5z" />
<glyph unicode="G" horiz-adv-x="1241" d="M88 754q18 125 41 204.5t66 138t112.5 106t184.5 104.5q119 -10 217 -24.5t211 -47.5q0 -37 -3.5 -63.5t-10.5 -50t-18 -48t-26 -57.5q-37 -2 -57.5 -2t-37.5 2t-35.5 8t-49.5 16q-102 0 -166.5 -29.5t-102.5 -79.5t-53.5 -119t-20.5 -146.5t-5 -161.5t-4 -166 q35 -6 67.5 -12.5t65.5 -12.5q68 6 131 10.5t127 10.5l65 4h41.5t38.5 4v166q-66 8 -124 16t-112.5 19.5t-108.5 29t-113 48.5q4 37 4 73.5t4 71.5q84 29 177 30h13q87 0 176 -12q95 -14 189 -35.5t178 -37.5q14 -86 14 -158t-10 -140.5t-27.5 -139t-35.5 -152.5 q-29 4 -53.5 6t-53.5 6q-2 -16 -4 -30.5t-2 -30.5q-121 -39 -235 -54q-60 -9 -117 -9q-54 0 -107 7q-108 15 -210.5 62t-198.5 131q-6 135 -11.5 270t-9.5 275z" />
<glyph unicode="H" horiz-adv-x="1353" d="M94 873.5q0 64.5 2 100.5t7.5 53t11.5 36q88 25 137 37t76.5 16t43 1t38.5 -11q16 -74 31.5 -147.5t31.5 -151.5q92 10 187.5 16t193.5 13q10 123 18.5 241.5t14.5 241.5q74 6 147.5 11t147.5 9q20 -317 39.5 -633.5t42.5 -633.5q-170 -6 -334 -19q-18 18 -28.5 33.5 t-22 50.5t-25.5 99.5t-39 181.5q-94 12 -183 24.5t-181 22.5q-12 -100 -22.5 -203.5t-25.5 -208.5q-33 -16 -54 -25.5t-48 -15.5t-68.5 -10t-117.5 -12q-6 250 -11.5 422t-7.5 284.5t-2 177z" />
<glyph unicode="I" horiz-adv-x="641" d="M104 1755q23 14 40.5 30.5t39.5 31.5q57 -18 90 -28.5t51.5 -18t30 -15.5t27.5 -22q0 -68 -2 -134.5t-2 -130.5h-256q-6 72 -10 141.5t-9 145.5zM112 976q1 68 4 141t7 171q76 4 152.5 7t150.5 12q10 -193 17.5 -326t12.5 -230.5t7 -170t2 -143t-2 -149.5t-4 -190 q-41 -27 -74 -43t-66.5 -26.5t-70.5 -17.5t-86 -13q-14 223 -24.5 377.5t-15.5 265.5t-8 189q-2 58 -2 111v35z" />
<glyph unicode="J" horiz-adv-x="1048" d="M72 29q4 59 10 118.5t12 116.5q74 -2 140.5 -2t132 3t131 10.5t139.5 21.5q23 123 32 248t14 250t9 249.5t17 249.5h7q99 0 154 -52q56 -54 78 -143q20 -79 20 -174v-26q-3 -111 -18.5 -220.5t-35 -205.5t-27.5 -156l-139 -262q-45 -10 -78 -16t-65 -11t-69.5 -8.5 t-92 -6.5t-132 -5t-190.5 -6q-14 10 -26.5 15.5t-22.5 11.5z" />
<glyph unicode="K" horiz-adv-x="1116" d="M75 932q1 62 3 129t4 158q53 4 106.5 8t108.5 8q4 -117 8 -208t8 -163q70 70 154 140.5t165 134t152.5 117t116.5 90.5q72 -76 139 -158q-106 -125 -180 -211t-122 -143.5t-75.5 -91t-42 -55t-21.5 -35t-13 -29.5q12 -4 24.5 -18.5t24.5 -32t25.5 -35t25.5 -27.5 q76 -78 152.5 -156t152.5 -155q-51 -69 -104 -89q-34 -13 -69 -13q-20 1 -40 5q-56 12 -110 48t-107 82.5t-102 96.5t-92 89q-12 6 -22.5 11t-20.5 11q0 -63 -3 -136t-2 -171q-31 -23 -54 -38t-46.5 -24.5t-49.5 -15.5t-60 -12q-10 203 -16.5 344t-10.5 241q-4 102 -6 172 q-1 47 -1 90v42z" />
<glyph unicode="L" horiz-adv-x="1286" d="M61 351v37q-1 107 9 222q12 135 28.5 262t32.5 236t25 180q61 -4 125.5 -8t130.5 -8q16 -203 28.5 -343.5t20.5 -232.5t14 -145t12.5 -85t12.5 -49.5t14 -37.5q14 6 36.5 4t48.5 -6t51.5 -7t45.5 1q135 -4 268.5 -4t272.5 -5q6 -37 6 -70q-1 -58 -19 -100 q-28 -66 -86.5 -102.5t-139 -53t-168.5 -20.5q-70 -3 -140 -3h-35.5h-34.5q-68 0 -124 -3q-86 -29 -170 -57t-170 -57q5 52 5 66q0 12 -14 -1q-47 61 -65.5 163.5t-20.5 226.5z" />
<glyph unicode="M" horiz-adv-x="1662" d="M57 1290q39 2 69 4t56.5 -1t54 -9t64.5 -18q4 -20 4 -39t4 -39q39 -10 79 -24.5t73 -38t54.5 -59.5t21.5 -87q16 4 31.5 6t31.5 6q0 -10 2 -22.5t2 -24.5q55 -16 93 -52t70 -75t66.5 -71.5t84.5 -45.5q80 152 159.5 301.5t159.5 296.5q43 14 73 18q14 2 28 1q16 0 31 -2 q28 -4 58.5 -15.5t73.5 -25.5q0 -332 20.5 -654.5t53.5 -658.5h-275q-23 172 -42 338t-41 334h-43q-29 -49 -58 -97.5t-55 -95.5q-92 -34 -161 -34h-6q-71 2 -126 26.5t-100 70.5t-88 101t-90.5 117.5t-106.5 120.5q-14 -4 -21.5 -6t-17.5 -7q0 -205 12.5 -394t26.5 -388 q-49 -6 -79 -10t-55.5 -4t-55 4t-80.5 10q-12 311 -25.5 621.5t-30.5 621.5z" />
<glyph unicode="N" horiz-adv-x="1495" d="M70 1290v10h4q37 4 62.5 4.5t47.5 -4.5q23 0 47.5 -7t57.5 -19l4 -4v-4q4 -16 4 -34v-34q37 -12 71.5 -27.5t61.5 -37.5q29 -23 47.5 -57t22.5 -83l49 8l4 5l4 -9l4 -45q49 -16 107.5 -62t117.5 -99q55 -49 111.5 -92.5t97.5 -57.5q35 72 42 156t12 174q4 90 12 174 t45 160v4q34 12 58 15q18 2 35 2h11q22 -1 44 -8t51 -18q10 -4 19 -9t19 -9h5v-4q0 -166 5 -326.5t13 -322.5q10 -162 19.5 -325t23.5 -331v-4h-242v4h-8q-16 49 -27.5 80t-21.5 47q-10 20 -17.5 28.5t-13.5 16.5q-113 98 -211 188.5t-184 176.5q-90 82 -170 163t-160 167 q-10 0 -20 -11q-1 -58 -1 -115q0 -99 4 -191q7 -146 17 -300q4 -43 7.5 -83t3.5 -83v-8h-5q-45 -6 -70.5 -8t-48 -2t-48 2t-70.5 8h-10v8l-25 772z" />
<glyph unicode="O" d="M68 551q4 135 9 268t11 264q94 84 194 131q100 48 206 62q53 7 107.5 7t110.5 -7q112 -14 230 -53h16q74 -39 123 -66t80 -52.5t47.5 -53t26.5 -67.5t17 -96.5t20 -137.5q-4 -137 -9.5 -271.5t-11.5 -267.5q-121 -104 -243 -144q-98 -32 -205 -32q-27 0 -54 2 q-66 -16 -132 -23.5t-144 -13.5q-113 57 -182.5 103.5t-111.5 104.5t-64.5 138t-40.5 205zM307 954q3 -66 3 -131v-33v-27q0 -67 4 -131q5 -77 20.5 -143.5t52.5 -116.5t101.5 -79t166.5 -29q31 8 48.5 13.5t34 8.5t38 3h58.5q4 -12 8 -21.5t8 -15.5q35 43 71.5 89t70.5 86 t62.5 67.5t47.5 31.5q-4 94 -10.5 173t-28 140.5t-63 104t-117.5 62.5q0 -4 -2 -7.5t-2 -7.5q-53 -19 -89 -27q-27 -6 -52 -6h-17q-33 2 -66.5 13.5t-81.5 29.5q-68 -8 -134 -19t-132 -28z" />
<glyph unicode="P" horiz-adv-x="1093" d="M60 1065q6 102 22 178q133 31 251 38t255 7q6 12 10 21.5t10 19.5q74 -4 150 -8t149 -8q25 -84 56.5 -166t53 -164t27.5 -164q1 -14 0 -28q0 -68 -22 -138q-68 -23 -156 -45t-173 -43.5t-153.5 -41t-97.5 -36.5q12 -109 18.5 -169t8.5 -103q1 -17 1 -34q0 -25 -2 -50 q-3 -41 -9 -106q-49 -10 -100.5 -16.5t-100.5 -12.5q-39 72 -70.5 171t-57.5 212t-43 233.5t-25 235.5q-4 66 -4 128q0 46 2 89zM389 993l12 -184q84 12 167 23.5t167 21.5q-10 43 -16 86l-12 86q-41 0 -82 4t-83 4t-81 -8t-72 -33z" />
<glyph unicode="Q" horiz-adv-x="1525" d="M68 530q6 143 12 282.5t14 281.5q98 88 203.5 136t216.5 64q56 7 112.5 7t115.5 -7q116 -16 241 -55h16q78 -39 130.5 -66.5t84 -54t50 -56.5t29 -72t18.5 -102.5t20 -146.5q-6 -145 -12 -284.5t-12 -280.5q-12 -12 -24.5 -22.5t-29.5 -20.5q53 -55 104.5 -112.5 t98.5 -122.5q-80 -27 -162 -49.5t-166 -51.5q-76 72 -120.5 115t-77.5 84q-35 -6 -72 -7h-15q-30 0 -61 3q-72 -14 -141 -21.5t-149 -15.5q-119 59 -193 107.5t-119 108.5t-68.5 144t-43.5 215zM319 956q6 -78 6 -157q0 -6 -1 -13v-16q0 -77 5 -150q5 -81 21.5 -153t55 -124 t106.5 -83t174 -31q23 8 37 13.5t27 9.5l-15 14q45 29 79 53.5t66.5 43t70.5 29.5t89 11h4q35 41 65 69t52 32q-10 113 -21.5 202t-45 155.5t-98 108.5t-181.5 62q-41 0 -77 3q-8 1 -17 1q-29 0 -62 -8q-14 -2 -21 -5t-17 -7q-6 0 -10.5 -2t-12.5 -6q-66 -12 -137.5 -25.5 t-141.5 -26.5z" />
<glyph unicode="R" horiz-adv-x="1146" d="M68 1149q33 12 54 23.5t38.5 24.5t34 31.5t34.5 47.5h572q43 -20 70.5 -65.5t43 -103.5t19.5 -126q2 -30 2 -60q0 -37 -3 -71q-5 -64 -19.5 -120t-32.5 -93q-53 -12 -106.5 -26.5t-102.5 -28.5q41 -43 106.5 -98.5t130 -116t115.5 -123t61 -121.5q-33 -16 -60.5 -27.5 t-55 -19.5t-56 -13.5t-65.5 -9.5q-104 139 -228 258t-253 238q-4 -133 -4.5 -263t-2.5 -266q-41 -10 -78.5 -19t-72.5 -19q-20 12 -38.5 20t-39.5 18q-16 287 -30.5 566.5t-32.5 562.5zM305 1047q10 -72 22.5 -140.5t24.5 -144.5l355 47l-25 238h-377z" />
<glyph unicode="S" horiz-adv-x="1165" d="M80 1152q6 75 37 130q178 17 348 17q33 0 67 -1q202 -4 420 -16v-213q-150 4 -297 6t-295 2q0 -117 16.5 -180t45.5 -90t68.5 -27t88 12.5t103.5 27.5q56 16 114 17h5q55 -1 113 -19q60 -20 120 -79q24 -86 42 -181q14 -73 14 -144q0 -21 -2 -42q-6 -91 -43 -170 t-125 -132q0 -12 -2.5 -22.5t-2.5 -27.5q-29 -6 -56 -12t-52 -12q-145 59 -290.5 116.5t-289.5 116.5q-2 25 -2 42.5t6.5 41t20.5 61.5t41 107q12 -6 52 -22.5t93.5 -39t114.5 -45t118.5 -39t103.5 -21.5q13 -1 24 -1q29 0 45 9q-4 61 -8.5 119.5t-8.5 117.5 q-61 25 -121.5 25t-121 -9.5t-119.5 -18.5q-33 -5 -65 -5q-26 0 -50 3q-56 7 -109 39t-100 105q-16 61 -32.5 140.5t-25.5 159.5q-5 48 -5 93q0 31 2 61z" />
<glyph unicode="T" horiz-adv-x="1515" d="M41 1012q12 70 27.5 136t31.5 132q328 10 654.5 16.5t658.5 12.5q6 -66 14.5 -132.5t14.5 -136.5q-127 -16 -251 -31.5t-247 -33.5q12 -245 24 -481q3 -64 3 -128q0 -173 -23 -350q-63 -4 -126 -9t-126 -11q-10 240 -18 476.5t-19 471.5q-158 20 -311 35.5t-307 32.5z " />
<glyph unicode="U" horiz-adv-x="1439" d="M62 1062q1 24 1 56q86 29 133.5 44.5t73 21.5t39 4t29.5 -8q49 -219 100 -434.5t101 -434.5q107 -29 183 -29q19 0 36 2q84 10 129 52q45 40 58 110q8 45 8 97q0 28 -2 58q-7 85 -26.5 180.5t-41 187.5t-37.5 176q-13 70 -12 127v22q49 16 92 23.5t86 8.5h17q35 0 71 -3 q45 -4 98 -8q35 -168 73 -309q39 -140 59 -258q17 -96 16 -181v-37q-4 -102 -51.5 -191t-144.5 -170t-263 -161q-117 -4 -230.5 -9t-228.5 -11q-55 25 -112.5 47t-112.5 47q-37 229 -60.5 387t-40 263.5t-24.5 167.5t-12 100q-4 31 -4 53v9z" />
<glyph unicode="V" horiz-adv-x="1196" d="M47 1268v18l14 8q45 14 71 21.5t44.5 10.5t37.5 3t52 -2h15l8 -14q27 -53 41 -85t25.5 -60.5t22.5 -65.5t30 -101q72 -137 116.5 -223t72.5 -140t42 -88t27 -67q14 41 27.5 90.5t27.5 102.5q29 100 61.5 206.5t76.5 194.5t103.5 143.5t141.5 55.5l22 4v-27q0 -2 -6 -25.5 t-14 -59t-19.5 -78.5t-19.5 -84q-8 -29 -14 -53.5t-11 -43.5q-6 -23 -12 -41v-8q-10 -23 -20.5 -74t-20.5 -106q-14 -59 -26.5 -111.5t-22.5 -74.5q-10 -35 -28.5 -90.5l-41.5 -124.5q-16 -53 -33.5 -105.5t-37.5 -105.5l-2 -15h-13q-84 -18 -170 -41l-18 -4l-8 19 q-41 90 -85 180t-85 180q-90 195 -179 388.5t-182 389.5v6z" />
<glyph unicode="W" horiz-adv-x="1673" d="M45 1260l21 4q43 14 66.5 21t42 10t37.5 3t50 -2h12l9 -12q25 -51 40 -82t25 -59.5t21.5 -64.5t29.5 -99q70 -133 114 -216t69.5 -136.5t41 -87t27.5 -66.5q10 33 18.5 63.5t14.5 59.5q18 61 37.5 114.5t51.5 92.5t82 61.5t134 22.5h12l9 -13q57 -123 114.5 -240.5 t110.5 -234.5q12 35 26.5 88.5t32.5 128.5q29 113 71 270.5t103 373.5l7 16h16h61h9l8 -8q23 -23 34 -42.5t16 -39t5 -39v-43.5v-45v-4q-47 -182 -79 -307t-53.5 -212t-36.5 -143.5t-27.5 -100.5t-24.5 -84t-29 -93l-4 -13h-14q-31 -12 -56.5 -21t-52.5 -18q-29 -6 -57.5 -9 t-63.5 1h-16l-4 15q-31 78 -62.5 154.5t-62.5 152.5l-43 104q-6 -4 -12 -4t-13 -4q-29 -86 -62.5 -189.5t-70.5 -213.5l-4 -15h-12q-39 -10 -81 -18t-83 -19l-20 -4l-9 17q-37 88 -77.5 174t-81.5 172q-176 383 -351 762l-4 4v4l-8 92z" />
<glyph unicode="X" horiz-adv-x="1380" d="M41 1292q43 8 67.5 12.5t43 5.5t36 1t48.5 -2q29 -31 45 -48.5t27 -34t23.5 -37t30.5 -56.5q88 -96 137.5 -148.5t76 -84.5t40 -51.5t29.5 -49.5q27 35 51.5 84l51 102t59.5 106.5t74 95.5t95 68.5t124 26.5l-16 -35q-15 -35 -33.5 -77t-34.5 -76l-17 -35q-8 -12 -20 -47 t-25.5 -70t-26 -63.5t-18.5 -28.5q-23 -43 -45 -81t-45 -79q74 -66 148.5 -151.5t143.5 -174t126 -166t94 -124.5q-33 -31 -72.5 -65t-76.5 -64q-121 102 -204 172.5t-137.5 117t-87 72t-52 38.5t-32 18.5t-26.5 11.5q-4 -10 -18.5 -21.5t-32 -24t-33.5 -24.5t-27 -24 q-72 -74 -146.5 -146t-149.5 -143q-66 47 -86 98q-13 33 -12 67q0 19 4 37q10 52 45.5 105t80.5 103.5t93.5 97.5t82.5 90q14 25 29 49t27 51q-113 137 -224.5 272.5t-228.5 274.5z" />
<glyph unicode="Y" horiz-adv-x="1064" d="M76 10q6 61 12 123t14 121q76 -2 144.5 -2t135.5 3t134.5 11t140.5 23q12 61 23.5 122.5t24.5 123.5q-119 16 -206 32.5t-146.5 40t-96.5 60.5t-56.5 97t-25.5 147q-4 65 -4 152v60q14 16 35 31q80 -16 117.5 -32.5t53 -44t16.5 -75t7 -124.5q12 0 24.5 -2.5t27.5 -2.5 q0 -12 2 -23t2 -24q43 2 74.5 12.5t59 28t54.5 40t62 48.5q6 92 14 181.5t16 177.5h7q101 0 158 -55q58 -56 81 -147q19 -76 19 -169v-36q-5 -115 -20 -229t-33.5 -214t-26.5 -162q-35 -66 -73 -131.5t-73 -132.5q-70 -14 -115 -22.5t-105 -13.5t-157.5 -9t-269.5 -10 q-16 6 -27.5 14t-23.5 12z" />
<glyph unicode="Z" horiz-adv-x="1085" d="M71 182q1 16 4 37t6 55.5t5 94.5q82 55 167 124.5t173 132t180 107.5t191 49q-14 70 -50 112t-87.5 65.5t-115 32.5t-130 12.5t-135 3.5t-129.5 8q-6 63 -11.5 128.5t-9.5 131.5q78 6 156.5 16.5t156.5 20.5q129 -23 256 -42.5t254 -41.5q20 -72 42 -153q22 -80 26 -160 q1 -12 1 -25q-1 -67 -19 -132q-22 -77 -84 -141q-53 0 -102.5 -25.5t-95.5 -63t-91 -82t-91 -81t-96 -62.5q-46 -24 -93 -23h-7q2 -25 64.5 -30t149.5 -5t179 -2t154 -21q31 -66 47 -100.5t27.5 -54t20.5 -29.5t26 -25q-10 -10 -16.5 -19t-16.5 -15q-217 6 -430 13t-426 17 q-20 53 -31 85q-12 31 -16 51q-3 16 -3 29v7z" />
<glyph unicode="\" horiz-adv-x="1169" d="M152 1243q61 2 124.5 3t126.5 7q104 -174 176 -292.5t124.5 -205.5t89 -152.5t72.5 -129t73 -134.5t90 -171q-23 -23 -41 -36t-42.5 -21.5t-54.5 -12.5t-69 -8q-123 201 -207 340t-143 236.5t-100 168t-74 132t-66.5 125t-78.5 151.5z" />
<glyph unicode="^" horiz-adv-x="763" d="M59 987q41 49 66 79t47.5 52.5t53 48t83.5 68.5q2 -2 17.5 -8t35 -11.5t36 -9.5t20.5 -2q51 -37 80.5 -59.5t54.5 -45t51.5 -53t73.5 -81.5q-25 -20 -42.5 -37t-34.5 -30t-37.5 -22.5t-51.5 -11.5q-37 49 -80 86t-86 72q-59 -51 -105 -108.5t-112 -110.5q-31 92 -70 184z " />
<glyph unicode="_" horiz-adv-x="1378" d="M37 -309q211 6 358.5 13t253 9t179 4t138 1t134 -3t164.5 -2q6 -43 9 -89t9 -89q-184 -8 -311 -11t-219.5 -6t-161 -5t-135 -2t-141 1t-181.5 3q-27 25 -42 43t-25.5 37.5t-16.5 42t-12 53.5z" />
<glyph unicode="`" horiz-adv-x="454" d="M20 1339q25 14 43.5 28.5t37 26t40 17.5t52.5 6q25 -45 54 -81t61 -68.5t63.5 -66.5t60.5 -75q-47 -14 -94 -27.5t-94 -29.5q-47 43 -74 69.5t-48.5 52.5t-43 58.5t-58.5 89.5z" />
<glyph unicode="a" horiz-adv-x="1206" d="M70 1174q18 6 36.5 12t38.5 12v100q205 -4 409 -7t411 -9l36 -35q-35 -12 -69 -33q18 -10 36.5 -20t41.5 -20q31 -252 60.5 -502t64.5 -502q-63 -18 -100.5 -28.5t-63 -13.5t-51 -3t-68.5 4q-31 82 -58.5 163t-58.5 165h-295q-4 -106 -9 -210t-11 -210 q-70 -10 -138.5 -18.5t-136.5 -18.5q-6 129 -20 278.5t-27 303.5q-14 154 -23 306q-6 105 -6 202q0 43 1 84zM352 993q6 -59 14.5 -120.5t18.5 -122.5h375v243h-408z" />
<glyph unicode="b" horiz-adv-x="1318" d="M74 1060q4 89 18 157q117 29 219.5 34.5t220.5 5.5q4 8 7.5 16.5t9.5 18.5q66 -4 131 -8t131 -8q14 -51 32.5 -100.5t35 -98.5t30 -97t17.5 -97q45 0 87 2t83 6q45 -37 75.5 -98.5t49 -136t25.5 -158.5q5 -65 5 -129v-37q-2 -82 -12 -156t-27 -129q-46 -25 -122 -31 q-36 -3 -76 -3q-43 -1 -90 3q-90 6 -186.5 19.5t-187.5 31t-168 35t-126 27.5h-12q-33 61 -60.5 148.5t-50 185.5t-37 202.5t-20.5 204.5q-4 60 -4 117q0 37 2 73zM362 999q0 -43 2 -82.5t7 -80.5q72 12 144.5 21t143.5 20q-6 39 -14 74.5t-12 74.5q-35 0 -71 4t-70.5 4 t-67.5 -7t-62 -28zM406 557q8 -84 14 -134t8 -86q1 -24 1 -46v-21q-1 -30 -3 -73q45 12 80 25.5t35 29.5q12 8 34.5 5t70.5 -10t130 -13q31 -2 69 -2q62 0 144 6q-12 145 -18 224t-28.5 116.5t-75 48t-152.5 18.5q-49 -12 -97.5 -23.5t-90.5 -22.5t-73.5 -22.5t-47.5 -19.5z " />
<glyph unicode="c" horiz-adv-x="1054" d="M86 555q6 135 11 270.5t14 266.5q94 86 194.5 132t208.5 60q52 7 104 7q58 0 116 -8q112 -15 233 -54q4 -29 8 -58.5t10 -64.5q-27 0 -51 -6q-10 -25 -17.5 -49.5t-17.5 -53.5q-51 -18 -87 -25q-28 -5 -53 -5h-15q-32 2 -67.5 14t-84.5 33q-66 -12 -132.5 -25.5 t-133.5 -25.5q4 -80 4 -163t5 -160t20.5 -144.5t53 -117.5t101 -79t166.5 -29q31 10 49 15.5t35.5 7.5t38 2h57.5q14 -33 24.5 -57.5t17.5 -48t10 -49t3 -60.5q-111 -35 -208 -50.5t-216 -23.5q-113 57 -182 103.5t-111 104.5t-66 138t-42 203z" />
<glyph unicode="d" horiz-adv-x="1312" d="M70 950q12 166 65 320l864 49l9 -88l108 -74q4 -74 26.5 -134t43.5 -135q20 -74 28 -176q2 -27 3 -59q0 -85 -17 -198q-4 -4 -4 -6v-3q-16 -31 -36.5 -74.5t-56.5 -89.5t-94.5 -91.5t-150.5 -81.5q-76 -35 -135 -48.5t-109.5 -18.5t-95.5 -8t-92 -18q-61 -12 -123 -26.5 t-119 -30.5q-35 154 -66.5 320.5t-45.5 335.5q-8 91 -8 181q0 77 6 154zM356 983q2 -23 7.5 -74t12.5 -115.5t14 -136t14.5 -137t12.5 -116.5t9 -74q59 4 92 11t61.5 13t61.5 11.5t92 9.5q49 6 93 36.5t75 75.5t47 101q10 36 10 72q0 20 -4 40q-8 56 -44 107t-105 88 q-100 53 -218 75q-82 16 -161 16q-35 0 -70 -3zM1196 438q0 -4 4 -4v9.5t4 11.5q-4 -4 -4 -6.5t-4 -2.5v-8z" />
<glyph unicode="e" horiz-adv-x="1210" d="M86 614v62q0 110 5 221q7 143 30 299q98 35 226 62.5t261 34.5q36 2 71 2q96 0 188 -14q126 -19 223 -77q-29 -20 -43.5 -31.5t-22.5 -22.5t-12 -24.5t-8 -35.5l-340 -32t-342 -34q6 -63 12 -126.5t16 -129.5q74 -8 119 -12t89 -4t103.5 2t161.5 6q6 -68 14.5 -135.5 t14.5 -135.5q-111 -6 -219.5 -15t-218.5 -21q0 -43 2 -91.5t6 -95.5h357t358 -4q0 -43 -2 -70.5t-9.5 -52t-21.5 -49t-39 -61.5q-219 -12 -434 -22.5t-436 -26.5q-37 31 -74 49q-14 158 -23.5 301.5t-11.5 283.5z" />
<glyph unicode="f" horiz-adv-x="1196" d="M108 672q-1 48 -1 95q0 111 7 221q11 157 48 302q240 6 474 14.5t474 14.5l-20 -217q-27 -23 -79.5 -37t-119 -22.5t-140 -12.5t-143 -6t-130 -2t-99.5 -4q16 -78 28.5 -155t26.5 -154l350 -41v-88q-88 -29 -175 -60t-175 -65q10 -59 15.5 -112.5t5.5 -104t-4.5 -103.5 t-12.5 -112q-29 -4 -51 -8.5t-42.5 -9.5t-43 -9t-51.5 -6q-29 16 -58.5 30.5t-58.5 24.5q-2 152 -11 310.5t-14 316.5z" />
<glyph unicode="g" horiz-adv-x="1241" d="M88 754q18 125 41 204.5t66 138t112.5 106t184.5 104.5q119 -10 217 -24.5t211 -47.5q0 -37 -3.5 -63.5t-10.5 -50t-18 -48t-26 -57.5q-37 -2 -57.5 -2t-37.5 2t-35.5 8t-49.5 16q-102 0 -166.5 -29.5t-102.5 -79.5t-53.5 -119t-20.5 -146.5t-5 -161.5t-4 -166 q35 -6 67.5 -12.5t65.5 -12.5q68 6 131 10.5t127 10.5l65 4h41.5t38.5 4v166q-66 8 -124 16t-112.5 19.5t-108.5 29t-113 48.5q4 37 4 73.5t4 71.5q84 29 177 30h13q87 0 176 -12q95 -14 189 -35.5t178 -37.5q14 -86 14 -158t-10 -140.5t-27.5 -139t-35.5 -152.5 q-29 4 -53.5 6t-53.5 6q-2 -16 -4 -30.5t-2 -30.5q-121 -39 -235 -54q-60 -9 -117 -9q-54 0 -107 7q-108 15 -210.5 62t-198.5 131q-6 135 -11.5 270t-9.5 275z" />
<glyph unicode="h" horiz-adv-x="1353" d="M94 873.5q0 64.5 2 100.5t7.5 53t11.5 36q88 25 137 37t76.5 16t43 1t38.5 -11q16 -74 31.5 -147.5t31.5 -151.5q92 10 187.5 16t193.5 13q10 123 18.5 241.5t14.5 241.5q74 6 147.5 11t147.5 9q20 -317 39.5 -633.5t42.5 -633.5q-170 -6 -334 -19q-18 18 -28.5 33.5 t-22 50.5t-25.5 99.5t-39 181.5q-94 12 -183 24.5t-181 22.5q-12 -100 -22.5 -203.5t-25.5 -208.5q-33 -16 -54 -25.5t-48 -15.5t-68.5 -10t-117.5 -12q-6 250 -11.5 422t-7.5 284.5t-2 177z" />
<glyph unicode="i" horiz-adv-x="641" d="M104 1755q23 14 40.5 30.5t39.5 31.5q57 -18 90 -28.5t51.5 -18t30 -15.5t27.5 -22q0 -68 -2 -134.5t-2 -130.5h-256q-6 72 -10 141.5t-9 145.5zM112 976q1 68 4 141t7 171q76 4 152.5 7t150.5 12q10 -193 17.5 -326t12.5 -230.5t7 -170t2 -143t-2 -149.5t-4 -190 q-41 -27 -74 -43t-66.5 -26.5t-70.5 -17.5t-86 -13q-14 223 -24.5 377.5t-15.5 265.5t-8 189q-2 58 -2 111v35z" />
<glyph unicode="j" horiz-adv-x="1048" d="M72 29q4 59 10 118.5t12 116.5q74 -2 140.5 -2t132 3t131 10.5t139.5 21.5q23 123 32 248t14 250t9 249.5t17 249.5h7q99 0 154 -52q56 -54 78 -143q20 -79 20 -174v-26q-3 -111 -18.5 -220.5t-35 -205.5t-27.5 -156l-139 -262q-45 -10 -78 -16t-65 -11t-69.5 -8.5 t-92 -6.5t-132 -5t-190.5 -6q-14 10 -26.5 15.5t-22.5 11.5z" />
<glyph unicode="k" horiz-adv-x="1116" d="M75 932q1 62 3 129t4 158q53 4 106.5 8t108.5 8q4 -117 8 -208t8 -163q70 70 154 140.5t165 134t152.5 117t116.5 90.5q72 -76 139 -158q-106 -125 -180 -211t-122 -143.5t-75.5 -91t-42 -55t-21.5 -35t-13 -29.5q12 -4 24.5 -18.5t24.5 -32t25.5 -35t25.5 -27.5 q76 -78 152.5 -156t152.5 -155q-51 -69 -104 -89q-34 -13 -69 -13q-20 1 -40 5q-56 12 -110 48t-107 82.5t-102 96.5t-92 89q-12 6 -22.5 11t-20.5 11q0 -63 -3 -136t-2 -171q-31 -23 -54 -38t-46.5 -24.5t-49.5 -15.5t-60 -12q-10 203 -16.5 344t-10.5 241q-4 102 -6 172 q-1 47 -1 90v42z" />
<glyph unicode="l" horiz-adv-x="1286" d="M61 351v37q-1 107 9 222q12 135 28.5 262t32.5 236t25 180q61 -4 125.5 -8t130.5 -8q16 -203 28.5 -343.5t20.5 -232.5t14 -145t12.5 -85t12.5 -49.5t14 -37.5q14 6 36.5 4t48.5 -6t51.5 -7t45.5 1q135 -4 268.5 -4t272.5 -5q6 -37 6 -70q-1 -58 -19 -100 q-28 -66 -86.5 -102.5t-139 -53t-168.5 -20.5q-70 -3 -140 -3h-35.5h-34.5q-68 0 -124 -3q-86 -29 -170 -57t-170 -57q5 52 5 66q0 12 -14 -1q-47 61 -65.5 163.5t-20.5 226.5z" />
<glyph unicode="m" horiz-adv-x="1662" d="M57 1290q39 2 69 4t56.5 -1t54 -9t64.5 -18q4 -20 4 -39t4 -39q39 -10 79 -24.5t73 -38t54.5 -59.5t21.5 -87q16 4 31.5 6t31.5 6q0 -10 2 -22.5t2 -24.5q55 -16 93 -52t70 -75t66.5 -71.5t84.5 -45.5q80 152 159.5 301.5t159.5 296.5q43 14 73 18q14 2 28 1q16 0 31 -2 q28 -4 58.5 -15.5t73.5 -25.5q0 -332 20.5 -654.5t53.5 -658.5h-275q-23 172 -42 338t-41 334h-43q-29 -49 -58 -97.5t-55 -95.5q-92 -34 -161 -34h-6q-71 2 -126 26.5t-100 70.5t-88 101t-90.5 117.5t-106.5 120.5q-14 -4 -21.5 -6t-17.5 -7q0 -205 12.5 -394t26.5 -388 q-49 -6 -79 -10t-55.5 -4t-55 4t-80.5 10q-12 311 -25.5 621.5t-30.5 621.5z" />
<glyph unicode="n" horiz-adv-x="1495" d="M70 1290v10h4q37 4 62.5 4.5t47.5 -4.5q23 0 47.5 -7t57.5 -19l4 -4v-4q4 -16 4 -34v-34q37 -12 71.5 -27.5t61.5 -37.5q29 -23 47.5 -57t22.5 -83l49 8l4 5l4 -9l4 -45q49 -16 107.5 -62t117.5 -99q55 -49 111.5 -92.5t97.5 -57.5q35 72 42 156t12 174q4 90 12 174 t45 160v4q34 12 58 15q18 2 35 2h11q22 -1 44 -8t51 -18q10 -4 19 -9t19 -9h5v-4q0 -166 5 -326.5t13 -322.5q10 -162 19.5 -325t23.5 -331v-4h-242v4h-8q-16 49 -27.5 80t-21.5 47q-10 20 -17.5 28.5t-13.5 16.5q-113 98 -211 188.5t-184 176.5q-90 82 -170 163t-160 167 q-10 0 -20 -11q-1 -58 -1 -115q0 -99 4 -191q7 -146 17 -300q4 -43 7.5 -83t3.5 -83v-8h-5q-45 -6 -70.5 -8t-48 -2t-48 2t-70.5 8h-10v8l-25 772z" />
<glyph unicode="o" d="M68 551q4 135 9 268t11 264q94 84 194 131q100 48 206 62q53 7 107.5 7t110.5 -7q112 -14 230 -53h16q74 -39 123 -66t80 -52.5t47.5 -53t26.5 -67.5t17 -96.5t20 -137.5q-4 -137 -9.5 -271.5t-11.5 -267.5q-121 -104 -243 -144q-98 -32 -205 -32q-27 0 -54 2 q-66 -16 -132 -23.5t-144 -13.5q-113 57 -182.5 103.5t-111.5 104.5t-64.5 138t-40.5 205zM307 954q3 -66 3 -131v-33v-27q0 -67 4 -131q5 -77 20.5 -143.5t52.5 -116.5t101.5 -79t166.5 -29q31 8 48.5 13.5t34 8.5t38 3h58.5q4 -12 8 -21.5t8 -15.5q35 43 71.5 89t70.5 86 t62.5 67.5t47.5 31.5q-4 94 -10.5 173t-28 140.5t-63 104t-117.5 62.5q0 -4 -2 -7.5t-2 -7.5q-53 -19 -89 -27q-27 -6 -52 -6h-17q-33 2 -66.5 13.5t-81.5 29.5q-68 -8 -134 -19t-132 -28z" />
<glyph unicode="p" horiz-adv-x="1093" d="M60 1065q6 102 22 178q133 31 251 38t255 7q6 12 10 21.5t10 19.5q74 -4 150 -8t149 -8q25 -84 56.5 -166t53 -164t27.5 -164v-28q0 -68 -22 -138q-68 -23 -156 -45t-173 -43.5t-153.5 -41t-97.5 -36.5q12 -109 18.5 -169t8.5 -103q1 -17 1 -34q0 -25 -2 -50 q-3 -41 -9 -106q-49 -10 -100.5 -16.5t-100.5 -12.5q-39 72 -70.5 171t-57.5 212t-43 233.5t-25 235.5q-4 66 -4 128q0 46 2 89zM389 993l12 -184q84 12 167 23.5t167 21.5q-10 43 -16 86l-12 86q-41 0 -82 4t-83 4t-81 -8t-72 -33z" />
<glyph unicode="q" horiz-adv-x="1525" d="M68 530q6 143 12 282.5t14 281.5q98 88 203.5 136t216.5 64q56 7 112.5 7t115.5 -7q116 -16 241 -55h16q78 -39 130.5 -66.5t84 -54t50 -56.5t29 -72t18.5 -102.5t20 -146.5q-6 -145 -12 -284.5t-12 -280.5q-12 -12 -24.5 -22.5t-29.5 -20.5q53 -55 104.5 -112.5 t98.5 -122.5q-80 -27 -162 -49.5t-166 -51.5q-76 72 -120.5 115t-77.5 84q-35 -6 -72 -7h-15q-30 0 -61 3q-72 -14 -141 -21.5t-149 -15.5q-119 59 -193 107.5t-119 108.5t-68.5 144t-43.5 215zM319 956q6 -78 6 -157q0 -6 -1 -13v-16q0 -77 5 -150q5 -81 21.5 -153t55 -124 t106.5 -83t174 -31q23 8 37 13.5t27 9.5l-15 14q45 29 79 53.5t66.5 43t70.5 29.5t89 11h4q35 41 65 69t52 32q-10 113 -21.5 202t-45 155.5t-98 108.5t-181.5 62q-41 0 -77 3q-8 1 -17 1q-29 0 -62 -8q-14 -2 -21 -5t-17 -7q-6 0 -10.5 -2t-12.5 -6q-66 -12 -137.5 -25.5 t-141.5 -26.5z" />
<glyph unicode="r" horiz-adv-x="1146" d="M68 1149q33 12 54 23.5t38.5 24.5t34 31.5t34.5 47.5h572q43 -20 70.5 -65.5t43 -103.5t19.5 -126q2 -30 2 -60q0 -37 -3 -71q-5 -64 -19.5 -120t-32.5 -93q-53 -12 -106.5 -26.5t-102.5 -28.5q41 -43 106.5 -98.5t130 -116t115.5 -123t61 -121.5q-33 -16 -60.5 -27.5 t-55 -19.5t-56 -13.5t-65.5 -9.5q-104 139 -228 258t-253 238q-4 -133 -4.5 -263t-2.5 -266q-41 -10 -78.5 -19t-72.5 -19q-20 12 -38.5 20t-39.5 18q-16 287 -30.5 566.5t-32.5 562.5zM305 1047q10 -72 22.5 -140.5t24.5 -144.5l355 47l-25 238h-377z" />
<glyph unicode="s" horiz-adv-x="1165" d="M80 1152q6 75 37 130q178 17 348 17q33 0 67 -1q202 -4 420 -16v-213q-150 4 -297 6t-295 2q0 -117 16.5 -180t45.5 -90t68.5 -27t88 12.5t103.5 27.5q56 16 114 17h5q55 -1 113 -19q60 -20 120 -79q24 -86 42 -181q14 -73 14 -144q0 -21 -2 -42q-6 -91 -43 -170 t-125 -132q0 -12 -2.5 -22.5t-2.5 -27.5q-29 -6 -56 -12t-52 -12q-145 59 -290.5 116.5t-289.5 116.5q-2 25 -2 42.5t6.5 41t20.5 61.5t41 107q12 -6 52 -22.5t93.5 -39t114.5 -45t118.5 -39t103.5 -21.5q13 -1 24 -1q29 0 45 9q-4 61 -8.5 119.5t-8.5 117.5 q-61 25 -121.5 25t-121 -9.5t-119.5 -18.5q-33 -5 -65 -5q-26 0 -50 3q-56 7 -109 39t-100 105q-16 61 -32.5 140.5t-25.5 159.5q-5 48 -5 93q0 31 2 61z" />
<glyph unicode="t" horiz-adv-x="1515" d="M41 1012q12 70 27.5 136t31.5 132q328 10 654.5 16.5t658.5 12.5q6 -66 14.5 -132.5t14.5 -136.5q-127 -16 -251 -31.5t-247 -33.5q12 -245 24 -481q3 -64 3 -128q0 -173 -23 -350q-63 -4 -126 -9t-126 -11q-10 240 -18 476.5t-19 471.5q-158 20 -311 35.5t-307 32.5z " />
<glyph unicode="u" horiz-adv-x="1439" d="M62 1062q1 24 1 56q86 29 133.5 44.5t73 21.5t39 4t29.5 -8q49 -219 100 -434.5t101 -434.5q107 -29 183 -29q19 0 36 2q84 10 129 52q45 40 58 110q8 45 8 97q0 28 -2 58q-7 85 -26.5 180.5t-41 187.5t-37.5 176q-13 70 -12 127v22q49 16 92 23.5t86 8.5h17q35 0 71 -3 q45 -4 98 -8q35 -168 73 -309q39 -140 59 -258q17 -96 16 -181v-37q-4 -102 -51.5 -191t-144.5 -170t-263 -161q-117 -4 -230.5 -9t-228.5 -11q-55 25 -112.5 47t-112.5 47q-37 229 -60.5 387t-40 263.5t-24.5 167.5t-12 100q-4 31 -4 53v9z" />
<glyph unicode="v" horiz-adv-x="1196" d="M47 1268v18l14 8q45 14 71 21.5t44.5 10.5t37.5 3t52 -2h15l8 -14q27 -53 41 -85t25.5 -60.5t22.5 -65.5t30 -101q72 -137 116.5 -223t72.5 -140t42 -88t27 -67q14 41 27.5 90.5t27.5 102.5q29 100 61.5 206.5t76.5 194.5t103.5 143.5t141.5 55.5l22 4v-27q0 -2 -6 -25.5 t-14 -59t-19.5 -78.5t-19.5 -84q-8 -29 -14 -53.5t-11 -43.5q-6 -23 -12 -41v-8q-10 -23 -20.5 -74t-20.5 -106q-14 -59 -26.5 -111.5t-22.5 -74.5q-10 -35 -28.5 -90.5l-41.5 -124.5q-16 -53 -33.5 -105.5t-37.5 -105.5l-2 -15h-13q-84 -18 -170 -41l-18 -4l-8 19 q-41 90 -85 180t-85 180q-90 195 -179 388.5t-182 389.5v6z" />
<glyph unicode="w" horiz-adv-x="1673" d="M45 1260l21 4q43 14 66.5 21t42 10t37.5 3t50 -2h12l9 -12q25 -51 40 -82t25 -59.5t21.5 -64.5t29.5 -99q70 -133 114 -216t69.5 -136.5t41 -87t27.5 -66.5q10 33 18.5 63.5t14.5 59.5q18 61 37.5 114.5t51.5 92.5t82 61.5t134 22.5h12l9 -13q57 -123 114.5 -240.5 t110.5 -234.5q12 35 26.5 88.5t32.5 128.5q29 113 71 270.5t103 373.5l7 16h16h61h9l8 -8q23 -23 34 -42.5t16 -39t5 -39v-43.5v-45v-4q-47 -182 -79 -307t-53.5 -212t-36.5 -143.5t-27.5 -100.5t-24.5 -84t-29 -93l-4 -13h-14q-31 -12 -56.5 -21t-52.5 -18q-29 -6 -57.5 -9 t-63.5 1h-16l-4 15q-31 78 -62.5 154.5t-62.5 152.5l-43 104q-6 -4 -12 -4t-13 -4q-29 -86 -62.5 -189.5t-70.5 -213.5l-4 -15h-12q-39 -10 -81 -18t-83 -19l-20 -4l-9 17q-37 88 -77.5 174t-81.5 172q-176 383 -351 762l-4 4v4l-8 92z" />
<glyph unicode="x" horiz-adv-x="1380" d="M41 1292q43 8 67.5 12.5t43 5.5t36 1t48.5 -2q29 -31 45 -48.5t27 -34t23.5 -37t30.5 -56.5q88 -96 137.5 -148.5t76 -84.5t40 -51.5t29.5 -49.5q27 35 51.5 84l51 102t59.5 106.5t74 95.5t95 68.5t124 26.5l-16 -35q-15 -35 -33.5 -77t-34.5 -76l-17 -35q-8 -12 -20 -47 t-25.5 -70t-26 -63.5t-18.5 -28.5q-23 -43 -45 -81t-45 -79q74 -66 148.5 -151.5t143.5 -174t126 -166t94 -124.5q-33 -31 -72.5 -65t-76.5 -64q-121 102 -204 172.5t-137.5 117t-87 72t-52 38.5t-32 18.5t-26.5 11.5q-4 -10 -18.5 -21.5t-32 -24t-33.5 -24.5t-27 -24 q-72 -74 -146.5 -146t-149.5 -143q-66 47 -86 98q-13 33 -12 67q0 19 4 37q10 52 45.5 105t80.5 103.5t93.5 97.5t82.5 90q14 25 29 49t27 51q-113 137 -224.5 272.5t-228.5 274.5z" />
<glyph unicode="y" horiz-adv-x="1064" d="M76 10q6 61 12 123t14 121q76 -2 144.5 -2t135.5 3t134.5 11t140.5 23q12 61 23.5 122.5t24.5 123.5q-119 16 -206 32.5t-146.5 40t-96.5 60.5t-56.5 97t-25.5 147q-4 65 -4 152v60q14 16 35 31q80 -16 117.5 -32.5t53 -44t16.5 -75t7 -124.5q12 0 24.5 -2.5t27.5 -2.5 q0 -12 2 -23t2 -24q43 2 74.5 12.5t59 28t54.5 40t62 48.5q6 92 14 181.5t16 177.5h7q101 0 158 -55q58 -56 81 -147q19 -76 19 -169v-36q-5 -115 -20 -229t-33.5 -214t-26.5 -162q-35 -66 -73 -131.5t-73 -132.5q-70 -14 -115 -22.5t-105 -13.5t-157.5 -9t-269.5 -10 q-16 6 -27.5 14t-23.5 12z" />
<glyph unicode="z" horiz-adv-x="1085" d="M71 182q1 16 4 37t6 55.5t5 94.5q82 55 167 124.5t173 132t180 107.5t191 49q-14 70 -50 112t-87.5 65.5t-115 32.5t-130 12.5t-135 3.5t-129.5 8q-6 63 -11.5 128.5t-9.5 131.5q78 6 156.5 16.5t156.5 20.5q129 -23 256 -42.5t254 -41.5q20 -72 42 -153q22 -80 26 -160 q1 -12 1 -25q-1 -67 -19 -132q-22 -77 -84 -141q-53 0 -102.5 -25.5t-95.5 -63t-91 -82t-91 -81t-96 -62.5q-46 -24 -93 -23h-7q2 -25 64.5 -30t149.5 -5t179 -2t154 -21q31 -66 47 -100.5t27.5 -54t20.5 -29.5t26 -25q-10 -10 -16.5 -19t-16.5 -15q-217 6 -430 13t-426 17 q-20 53 -31 85q-12 31 -16 51q-3 16 -3 29v7z" />
<glyph unicode="~" horiz-adv-x="1019" d="M160 311q6 49 7 90t7 78t21.5 72t48.5 74q82 -16 159.5 -15.5t154.5 7t156 12.5t163 0q-31 -78 -64 -153t-61 -152q-72 -10 -121 -17.5t-89 -10.5t-76 -4t-78 1t-96 6t-132 12z" />
<glyph unicode="&#xad;" horiz-adv-x="1173" d="M133 621q143 8 243.5 15t172.5 10t122 5t94 1t91 -3t111 -4q4 -47 6 -97t6 -97q-125 -8 -211 -12.5t-148.5 -7.5t-109.5 -5t-92 -2t-96.5 1t-122.5 3q-18 27 -28.5 47.5t-18 42t-11.5 46t-8 57.5z" />
<glyph unicode="&#xb4;" horiz-adv-x="518" d="M82 1014q41 51 65.5 79.5t48 52t54.5 50.5t86 70q37 -47 63.5 -79t32.5 -91q-43 -29 -78 -63t-65.5 -68.5t-63 -69.5t-71.5 -68q-16 47 -34 93.5t-38 93.5z" />
<glyph unicode="&#xb7;" horiz-adv-x="1705" />
<glyph unicode="&#xc0;" horiz-adv-x="1175" d="M12 1882q43 29 76 53.5t64.5 43t68.5 28.5t88 10q41 -74 91.5 -134t104.5 -117.5t108.5 -116t103.5 -127.5q-82 -23 -161 -45.5t-161 -51.5q-80 76 -125 120t-80.5 87t-75 98.5t-102.5 151.5zM55 1165q18 6 39 12.5t39 12.5v104q205 -6 407.5 -10t411.5 -10l33 -33 q-39 -16 -70 -35q18 -10 37 -20t41 -21q29 -250 61.5 -497.5t65.5 -497.5q-63 -18 -99 -28.5t-62.5 -14.5t-53 -4t-69.5 4q-27 80 -56.5 161t-58.5 163h-293q-6 -104 -10 -208t-10 -208q-70 -6 -137.5 -14.5t-137.5 -18.5q-6 127 -19.5 275.5t-27.5 302t-23.5 303 t-7.5 282.5zM340 985q6 -57 14 -118.5t19 -121.5h370v240h-403z" />
<glyph unicode="&#xc1;" horiz-adv-x="1148" d="M59 1157q35 18 76 23v104q201 -4 400.5 -9t404.5 -9q8 -6 16.5 -14.5l16.5 -16.5q-16 -10 -32.5 -18.5t-31.5 -16.5q16 -10 34 -20.5t38 -22.5q33 -246 62.5 -489.5t64.5 -489.5q-63 -20 -99 -31.5t-61.5 -15.5t-51.5 -2t-69 6q-29 78 -57.5 158t-56.5 162h-285 q-6 -102 -12 -205t-10 -207q-70 -10 -137.5 -17.5t-133.5 -17.5q-6 125 -20.5 271.5t-27.5 298t-22.5 301t-5.5 278.5zM305 1679q66 84 106 132.5t78.5 87t90 81.5t141.5 115q31 -41 58.5 -70.5t48 -59.5t33.5 -64.5t18 -85.5q-72 -47 -127.5 -101.5t-106.5 -112 t-103.5 -114.5t-117.5 -111q-29 76 -57.5 153t-61.5 150zM336 981q10 -59 17 -117.5t18 -118.5h368v236h-403z" />
<glyph unicode="&#xc2;" horiz-adv-x="1163" d="M-45 1737q66 84 105.5 132t78.5 87t90.5 81.5t141.5 114.5q2 -4 29.5 -13t59.5 -18.5t59.5 -16.5t31.5 -5q86 -61 136 -99t91 -75t86 -87t121 -138q-39 -33 -67.5 -61.5t-57.5 -50t-63.5 -37t-85.5 -23.5q-59 86 -132 147.5t-145 120.5q-49 -43 -92 -89t-84 -94t-86 -94 t-96 -89q-31 78 -60.5 153.5t-60.5 153.5zM51 1157q18 6 35.5 12.5t40.5 12.5v98q203 -4 404.5 -6t406.5 -8l33 -33q-18 -10 -34.5 -18.5t-35.5 -18.5q18 -8 39 -18.5t39 -20.5q33 -248 63.5 -494.5t63.5 -496.5q-63 -18 -99 -27.5t-61.5 -13.5t-51.5 -3t-69 3 q-29 82 -58.5 163t-55.5 158h-293q-4 -104 -8 -205.5t-11 -205.5q-70 -6 -138 -14.5t-134 -18.5q-6 125 -19.5 272.5t-27.5 300t-23.5 302t-5.5 280.5zM330 977q6 -57 14 -116.5t18 -119.5h373v236h-405z" />
<glyph unicode="&#xc3;" horiz-adv-x="1294" d="M127 1161q16 4 35.5 10.5t40.5 12.5v102q201 -4 401.5 -9t409.5 -11l33 -33q-43 -14 -68 -35q16 -8 33.5 -18.5t38.5 -18.5q31 -248 62.5 -494.5t66.5 -494.5q-61 -20 -97 -30.5t-63 -14.5t-52.5 -2t-68.5 6q-29 78 -58.5 158t-58.5 162h-286q-4 -102 -10.5 -206 t-12.5 -208q-72 -6 -137 -15.5t-133 -19.5q-8 127 -21.5 275.5t-27 301t-22.5 302t-5 280.5zM236 1386q6 49 7 90.5t7 78t21.5 71.5t47.5 74q82 -16 160 -15t155 7t155.5 12t162.5 0q-31 -78 -63.5 -152.5t-61.5 -152.5q-72 -10 -121 -17.5t-88.5 -10.5t-75.5 -4t-78 1 t-96 6t-132 12zM406 983q6 -59 15 -118.5t19 -119.5h369v238h-403z" />
<glyph unicode="&#xc7;" horiz-adv-x="1024" d="M63 735q18 125 42 208t67 142.5t114.5 106.5t188.5 104q119 -10 219.5 -24.5t216.5 -48.5q0 -35 -3 -61.5t-10 -51.5t-18.5 -49.5t-27.5 -54.5q-37 -2 -57.5 -2t-38 2t-36 6t-48.5 14q-106 0 -173 -29.5t-105 -81t-54 -120t-21.5 -148.5t-4.5 -165t-3 -167q33 -10 65 -14 t66 -14q43 6 83 4t79 -19q45 18 78 28.5t63.5 12.5t66.5 -5t87 -25q10 -31 17.5 -58.5t15.5 -50.5q14 -4 27.5 -5t23.5 -1q-4 -35 -7 -62.5t-7 -60.5q-76 -23 -145.5 -40t-135.5 -23q10 -92 27.5 -184.5t17.5 -194.5q-78 29 -156.5 52t-160.5 46q-12 61 -22.5 105t-17.5 81 t-11.5 68t-6.5 63q-70 25 -139 64t-137 98q-4 141 -9 277.5t-10 277.5z" />
<glyph unicode="&#xc8;" horiz-adv-x="1150" d="M51 1946q43 27 77 52t65.5 43.5t69.5 30t91 11.5q43 -78 94.5 -140.5t106.5 -121t111.5 -116.5t105.5 -130q-82 -25 -165 -48.5t-165 -51.5q-55 51 -93 86.5t-66.5 66.5t-52 59.5t-49 63.5t-56.5 81t-74 114zM59 629.5q-2 140.5 6.5 283t30.5 295.5q98 37 226.5 64.5 t260.5 35t257 -11t219 -75.5q-27 -23 -42.5 -35t-22.5 -22.5t-11 -24t-8 -35.5q-174 -16 -341 -31.5t-341 -34.5q6 -63 14 -125.5t19 -128.5q74 -8 117.5 -12t87.5 -4t103.5 2t162.5 6q6 -66 12 -133.5t16 -132.5q-113 -10 -221 -18.5t-219 -18.5q4 -47 6 -92t6 -92 q174 0 350.5 -2t356.5 -2q0 -43 -2 -73t-9.5 -54.5t-21.5 -49t-39 -61.5q-217 -10 -431 -21.5t-433 -23.5q-18 12 -34.5 24.5t-37.5 24.5q-14 154 -24.5 296t-12.5 282.5z" />
<glyph unicode="&#xc9;" horiz-adv-x="1126" d="M47 601q-2 138 6 277.5t31 290.5q96 37 222 65t256 36t253 -11.5t215 -76.5q-25 -23 -39 -35t-21 -22.5t-11.5 -22.5t-8.5 -33q-172 -16 -339 -31.5t-332 -33.5q6 -59 13 -123t13 -127q74 -8 117 -12.5t87 -4.5t102.5 2t160.5 6q6 -66 14.5 -131t14.5 -137 q-111 -6 -219.5 -14t-214.5 -19q0 -45 2 -91t6 -95h352t352 -4q0 -43 -2 -70.5t-9 -50t-21.5 -47.5t-36.5 -61q-217 -10 -429 -21.5t-429 -23.5q-37 25 -68 49q-14 154 -24.5 294t-12.5 278zM293 1696q45 57 77.5 97t59.5 70.5t53.5 56.5t58 53.5t76 63.5t105.5 85 q33 -41 60.5 -72t48 -61.5t35 -67.5t18.5 -88q-74 -49 -130.5 -105.5t-108.5 -115t-107.5 -117.5t-122.5 -115q-29 78 -58.5 158t-64.5 158z" />
<glyph unicode="&#xca;" horiz-adv-x="1157" d="M-45 1716q70 86 113 136.5t82.5 91.5t93 84.5t145.5 117.5q2 -4 31 -13t62.5 -19.5t62 -17.5t33.5 -3q90 -66 142 -104.5t94 -77.5t89 -91.5t127 -142.5q-41 -35 -71.5 -64.5t-60.5 -53t-65.5 -38t-89.5 -20.5q-66 86 -139.5 149.5t-148.5 127.5q-51 -45 -95.5 -93.5 t-88.5 -97.5t-91 -97t-102 -93q-29 82 -58.5 159.5t-64.5 159.5zM59 638q-2 140 6.5 282.5t30.5 296.5q98 37 226.5 65.5t260.5 35.5t258 -12.5t222 -76.5q-27 -23 -41 -35t-21.5 -22.5t-11.5 -23.5t-8 -34q-174 -16 -343 -32.5t-341 -34.5q4 -61 12 -125t15 -127 q76 -10 120.5 -14.5t89 -5.5t102.5 2t161 9q6 -70 15 -138t19 -136q-113 -6 -224 -14.5t-222 -18.5q0 -47 2 -93t6 -93q182 0 359.5 -3t355.5 -3q0 -43 -2 -72t-8 -53.5t-19.5 -49t-36.5 -61.5q-223 -10 -439 -21.5t-433 -27.5q-20 16 -37.5 28.5t-36.5 20.5 q-14 158 -24.5 302.5t-12.5 284.5z" />
<glyph unicode="&#xcc;" horiz-adv-x="571" d="M-287 1853q43 27 75 51.5t64.5 43t69.5 29t88 10.5q41 -76 90.5 -135.5t102.5 -116t106 -114.5t103 -128q-78 -23 -159 -44.5t-159 -47.5q-78 74 -123 118t-80.5 86t-75 97t-102.5 151zM117 948.5q0 67.5 3 137t7 165.5q72 4 144.5 7.5t148.5 9.5q8 -184 15 -313.5 t10.5 -223.5t5.5 -164.5t2 -139.5t-1 -146.5t-3 -186.5q-39 -25 -71 -39t-64.5 -24.5t-68.5 -16.5t-85 -12q-12 215 -20.5 365.5t-13.5 257t-7 181.5t-2 142.5z" />
<glyph unicode="&#xcd;" horiz-adv-x="471" d="M56 966.5q1 67.5 3 139.5t7 170q74 4 149.5 6t149.5 6q10 -188 16 -318t10 -226.5t6 -168t3 -141t0 -148.5t-1 -190q-41 -25 -74.5 -41t-66.5 -26.5t-69 -16.5t-85 -10q-14 219 -23 372.5t-14.5 262t-8.5 185.5t-2 144.5zM203 1710q45 57 76.5 97t59.5 71t53.5 56.5 t57 53t76 62.5t105.5 84q31 -41 58.5 -70.5t49 -60.5t35.5 -68t19 -88q-74 -49 -131.5 -104t-110.5 -113.5t-107.5 -119t-121.5 -115.5q-29 80 -57.5 157.5t-61.5 157.5z" />
<glyph unicode="&#xd2;" horiz-adv-x="1314" d="M53 547q6 135 12.5 269t12.5 265q186 162 394 187.5t446 -49.5h16q74 -37 122 -64t78.5 -52.5t47 -54t27 -68.5t17.5 -96.5t19 -138.5q-4 -135 -9 -267t-11 -261q-119 -106 -241 -145t-257 -29q-66 -16 -131 -23.5t-143 -13.5q-113 55 -181.5 101.5t-110.5 102.5 t-64.5 135t-43.5 202zM106 1780q41 27 72 51t62.5 40.5t67.5 27t85 10.5q39 -72 87 -129.5t99.5 -111.5t102.5 -109.5t98 -122.5q-76 -23 -152.5 -45.5t-154.5 -47.5q-76 72 -119 114t-77.5 83t-72 94.5t-98.5 145.5zM295 952q4 -80 3 -161.5t4 -157.5t20.5 -142.5 t52.5 -115.5t100.5 -78t163.5 -29q31 8 49.5 13.5t34.5 7.5t36.5 2t57.5 -2q4 -10 8 -18.5t9 -14.5q35 41 70.5 87t68.5 85t61.5 65.5t48.5 30.5q-4 94 -10 174t-27.5 140.5t-62.5 103t-117 62.5q0 -4 -2 -9.5t-2 -11.5q-51 -18 -88 -24.5t-68.5 -3.5t-65.5 14.5t-81 29.5 q-68 -12 -133.5 -21t-130.5 -26z" />
<glyph unicode="&#xd3;" horiz-adv-x="1320" d="M49 545q6 135 12.5 270t12.5 266q94 82 193.5 129t205 62.5t217 1.5t230.5 -53h16q111 -57 167 -92t82.5 -79t36 -113t27.5 -192q-4 -135 -9 -268t-11 -266q-119 -106 -242 -145t-258 -29q-68 -16 -134 -23.5t-142 -13.5q-113 55 -182.5 101t-112.5 103.5t-65.5 137.5 t-43.5 203zM293 952q4 -80 3 -162.5t3 -158.5t19.5 -143.5t53.5 -116.5t101.5 -78t165.5 -29q31 8 49.5 13.5t34.5 7.5t36.5 2t57.5 -2q4 -10 8 -18.5t9 -14.5q35 41 71.5 87t70.5 85t62.5 65.5t48.5 30.5q-4 96 -10 176t-27.5 141.5t-64.5 103.5t-119 65q0 -4 -2 -9.5 t-2 -11.5q-51 -18 -88 -25.5t-68.5 -4.5t-66.5 15.5t-82 30.5q-66 -12 -132.5 -22t-131.5 -27zM565 1659q43 55 75 94t57.5 68.5t50 54.5t55.5 51.5t72 59t98 79.5q31 -41 56.5 -69.5t46 -58t33.5 -63.5t17 -85q-68 -47 -122 -99.5t-104 -108.5t-101 -112.5t-115 -107.5 q-31 74 -59.5 149.5t-59.5 147.5z" />
<glyph unicode="&#xd4;" d="M74 547l12 270t12 268q94 82 194.5 129.5t206 62.5t217 1t232.5 -53h17q74 -39 123 -65.5t79.5 -52.5t47 -54.5t26.5 -68.5t17.5 -97.5t19.5 -138.5q-4 -135 -9 -269.5t-12 -265.5q-121 -109 -243.5 -147.5t-257.5 -28.5q-68 -16 -134.5 -23.5t-144.5 -13.5 q-113 57 -182.5 103.5t-112.5 103.5t-65.5 137t-42.5 203zM143 1671q66 84 106 132t79 87t90 82t141 115q2 -4 29.5 -13.5t59.5 -18.5t59.5 -16t31.5 -5q86 -61 136.5 -99.5t91.5 -75t86 -87t121 -138.5q-39 -33 -68 -61.5t-57.5 -50t-63.5 -37t-86 -23.5q-59 86 -132 147.5 t-144 121.5q-49 -43 -92.5 -89.5t-84 -94.5t-86 -94t-96.5 -89q-31 78 -60.5 153.5t-60.5 153.5zM319 954q4 -80 3.5 -162.5t3.5 -158.5t19 -143.5t53 -116.5t101.5 -78t166.5 -29q31 8 49 13.5t34.5 7.5t38 2t58.5 -2q4 -10 8 -18.5t8 -14.5q35 41 72 87t69.5 85t61.5 65.5 t49 30.5q-4 96 -10 176t-27.5 141.5t-63.5 103.5t-118 65q0 -4 -2 -9.5t-2 -11.5q-53 -18 -89 -25.5t-69 -4t-67.5 15.5t-81.5 31q-68 -12 -134.5 -22.5t-130.5 -27.5z" />
<glyph unicode="&#xd5;" horiz-adv-x="1357" d="M74 547l12 270t12 268q94 82 194.5 129.5t206 62.5t217 1t232.5 -53h17q74 -39 123 -65.5t79.5 -52.5t47 -54.5t26.5 -68.5t17.5 -97.5t19.5 -138.5q-4 -135 -9 -269.5t-12 -265.5q-121 -109 -243.5 -147.5t-257.5 -28.5q-68 -16 -134.5 -23.5t-144.5 -13.5 q-113 57 -182.5 103.5t-112.5 103.5t-65.5 137t-42.5 203zM299 1368q31 74 57.5 147.5t55.5 153.5q104 16 165.5 25.5t114.5 11.5t118.5 -1t176.5 -11q-4 -49 -3 -88t-4 -74t-17.5 -70t-42.5 -73q-84 12 -160 9t-152 -11.5t-151.5 -15.5t-157.5 -3zM319 954 q4 -80 3.5 -162.5t3.5 -158.5t19 -143.5t53 -116.5t101.5 -78t166.5 -29q31 8 49 13.5t34.5 7.5t38 2t58.5 -2q4 -10 8 -18.5t8 -14.5q35 41 72 87t69.5 85t61.5 65.5t49 30.5q-4 96 -10 176t-27.5 141.5t-63.5 103.5t-118 65q0 -4 -2 -9.5t-2 -11.5q-53 -18 -89 -25.5 t-69 -4t-67.5 15.5t-81.5 31q-68 -12 -134.5 -22.5t-130.5 -27.5z" />
<glyph unicode="&#xd9;" d="M-113 1659q31 41 52.5 74.5t44 62.5t53.5 50.5t78 37.5q66 -55 133 -93t136 -71.5t138.5 -69.5t139.5 -85q-68 -47 -132.5 -94.5t-132.5 -100.5q-98 41 -155.5 66.5t-104.5 52.5t-102.5 64.5t-147.5 105.5zM56 1049.5q1 23.5 1 54.5q84 29 130 44t72 20.5t39 4t32 -7.5 q45 -215 95 -426t97 -422q131 -35 213 -25.5t126 50.5t56.5 108.5t6.5 150.5t-26.5 176t-41 183.5t-36 172t-13.5 145.5q49 14 91 21.5t84 7.5t86 -4.5t95 -8.5q35 -164 72 -300t56.5 -250.5t15.5 -213t-49.5 -186.5t-140.5 -167t-257 -159q-115 -4 -224 -9t-222 -11 q-55 25 -109.5 48.5t-109.5 43.5q-35 223 -59.5 378t-40 257t-24 162.5t-12.5 99.5t-3 62.5z" />
<glyph unicode="&#xda;" horiz-adv-x="1339" d="M55 1031.5q0 23.5 2 51.5q82 29 127 44.5t71 20.5t38 3t31 -8q45 -211 94 -418t96 -414q129 -35 209 -25.5t123 49.5t55 106.5t5 148.5t-26.5 172t-39 179t-34.5 170t-13 142q47 14 89 21.5t83 7.5t84 -4t94 -8q35 -160 70.5 -293t55 -247t15.5 -210t-49 -182t-138 -164 t-253 -156q-111 -4 -218 -9t-218 -11q-109 49 -215 92q-35 219 -58.5 370.5t-39 252t-24 161t-12.5 97.5t-4 60.5zM459 1591q66 82 104.5 129t76.5 86t89 80t139 111q31 -39 56.5 -67.5t46 -58.5t35 -63.5t18.5 -83.5q-72 -49 -126 -103t-104.5 -110.5t-101.5 -113 t-114 -107.5q-29 74 -57.5 148.5t-61.5 152.5z" />
<glyph unicode="&#xe0;" horiz-adv-x="1175" d="M12 1882q43 29 76 53.5t64.5 43t68.5 28.5t88 10q41 -74 91.5 -134t104.5 -117.5t108.5 -116t103.5 -127.5q-82 -23 -161 -45.5t-161 -51.5q-80 76 -125 120t-80.5 87t-75 98.5t-102.5 151.5zM55 1165q18 6 39 12.5t39 12.5v104q205 -6 407.5 -10t411.5 -10l33 -33 q-39 -16 -70 -35q18 -10 37 -20t41 -21q29 -250 61.5 -497.5t65.5 -497.5q-63 -18 -99 -28.5t-62.5 -14.5t-53 -4t-69.5 4q-27 80 -56.5 161t-58.5 163h-293q-6 -104 -10 -208t-10 -208q-70 -6 -137.5 -14.5t-137.5 -18.5q-6 127 -19.5 275.5t-27.5 302t-23.5 303 t-7.5 282.5zM340 985q6 -57 14 -118.5t19 -121.5h370v240h-403z" />
<glyph unicode="&#xe1;" horiz-adv-x="1148" d="M59 1157q35 18 76 23v104q201 -4 400.5 -9t404.5 -9q8 -6 16.5 -14.5l16.5 -16.5q-16 -10 -32.5 -18.5t-31.5 -16.5q16 -10 34 -20.5t38 -22.5q33 -246 62.5 -489.5t64.5 -489.5q-63 -20 -99 -31.5t-61.5 -15.5t-51.5 -2t-69 6q-29 78 -57.5 158t-56.5 162h-285 q-6 -102 -12 -205t-10 -207q-70 -10 -137.5 -17.5t-133.5 -17.5q-6 125 -20.5 271.5t-27.5 298t-22.5 301t-5.5 278.5zM305 1679q66 84 106 132.5t78.5 87t90 81.5t141.5 115q31 -41 58.5 -70.5t48 -59.5t33.5 -64.5t18 -85.5q-72 -47 -127.5 -101.5t-106.5 -112 t-103.5 -114.5t-117.5 -111q-29 76 -57.5 153t-61.5 150zM336 981q10 -59 17 -117.5t18 -118.5h368v236h-403z" />
<glyph unicode="&#xe2;" horiz-adv-x="1163" d="M-45 1737q66 84 105.5 132t78.5 87t90.5 81.5t141.5 114.5q2 -4 29.5 -13t59.5 -18.5t59.5 -16.5t31.5 -5q86 -61 136 -99t91 -75t86 -87t121 -138q-39 -33 -67.5 -61.5t-57.5 -50t-63.5 -37t-85.5 -23.5q-59 86 -132 147.5t-145 120.5q-49 -43 -92 -89t-84 -94t-86 -94 t-96 -89q-31 78 -60.5 153.5t-60.5 153.5zM51 1157q18 6 35.5 12.5t40.5 12.5v98q203 -4 404.5 -6t406.5 -8l33 -33q-18 -10 -34.5 -18.5t-35.5 -18.5q18 -8 39 -18.5t39 -20.5q33 -248 63.5 -494.5t63.5 -496.5q-63 -18 -99 -27.5t-61.5 -13.5t-51.5 -3t-69 3 q-29 82 -58.5 163t-55.5 158h-293q-4 -104 -8 -205.5t-11 -205.5q-70 -6 -138 -14.5t-134 -18.5q-6 125 -19.5 272.5t-27.5 300t-23.5 302t-5.5 280.5zM330 977q6 -57 14 -116.5t18 -119.5h373v236h-405z" />
<glyph unicode="&#xe3;" horiz-adv-x="1294" d="M127 1161q16 4 35.5 10.5t40.5 12.5v102q201 -4 401.5 -9t409.5 -11l33 -33q-43 -14 -68 -35q16 -8 33.5 -18.5t38.5 -18.5q31 -248 62.5 -494.5t66.5 -494.5q-61 -20 -97 -30.5t-63 -14.5t-52.5 -2t-68.5 6q-29 78 -58.5 158t-58.5 162h-286q-4 -102 -10.5 -206 t-12.5 -208q-72 -6 -137 -15.5t-133 -19.5q-8 127 -21.5 275.5t-27 301t-22.5 302t-5 280.5zM236 1386q6 49 7 90.5t7 78t21.5 71.5t47.5 74q82 -16 160 -15t155 7t155.5 12t162.5 0q-31 -78 -63.5 -152.5t-61.5 -152.5q-72 -10 -121 -17.5t-88.5 -10.5t-75.5 -4t-78 1 t-96 6t-132 12zM406 983q6 -59 15 -118.5t19 -119.5h369v238h-403z" />
<glyph unicode="&#xe7;" horiz-adv-x="1024" d="M63 735q18 125 42 208t67 142.5t114.5 106.5t188.5 104q119 -10 219.5 -24.5t216.5 -48.5q0 -35 -3 -61.5t-10 -51.5t-18.5 -49.5t-27.5 -54.5q-37 -2 -57.5 -2t-38 2t-36 6t-48.5 14q-106 0 -173 -29.5t-105 -81t-54 -120t-21.5 -148.5t-4.5 -165t-3 -167q33 -10 65 -14 t66 -14q43 6 83 4t79 -19q45 18 78 28.5t63.5 12.5t66.5 -5t87 -25q10 -31 17.5 -58.5t15.5 -50.5q14 -4 27.5 -5t23.5 -1q-4 -35 -7 -62.5t-7 -60.5q-76 -23 -145.5 -40t-135.5 -23q10 -92 27.5 -184.5t17.5 -194.5q-78 29 -156.5 52t-160.5 46q-12 61 -22.5 105t-17.5 81 t-11.5 68t-6.5 63q-70 25 -139 64t-137 98q-4 141 -9 277.5t-10 277.5z" />
<glyph unicode="&#xe8;" horiz-adv-x="1150" d="M51 1946q43 27 77 52t65.5 43.5t69.5 30t91 11.5q43 -78 94.5 -140.5t106.5 -121t111.5 -116.5t105.5 -130q-82 -25 -165 -48.5t-165 -51.5q-55 51 -93 86.5t-66.5 66.5t-52 59.5t-49 63.5t-56.5 81t-74 114zM59 629.5q-2 140.5 6.5 283t30.5 295.5q98 37 226.5 64.5 t260.5 35t257 -11t219 -75.5q-27 -23 -42.5 -35t-22.5 -22.5t-11 -24t-8 -35.5q-174 -16 -341 -31.5t-341 -34.5q6 -63 14 -125.5t19 -128.5q74 -8 117.5 -12t87.5 -4t103.5 2t162.5 6q6 -66 12 -133.5t16 -132.5q-113 -10 -221 -18.5t-219 -18.5q4 -47 6 -92t6 -92 q174 0 350.5 -2t356.5 -2q0 -43 -2 -73t-9.5 -54.5t-21.5 -49t-39 -61.5q-217 -10 -431 -21.5t-433 -23.5q-18 12 -34.5 24.5t-37.5 24.5q-14 154 -24.5 296t-12.5 282.5z" />
<glyph unicode="&#xe9;" horiz-adv-x="1126" d="M47 601q-2 138 6 277.5t31 290.5q96 37 222 65t256 36t253 -11.5t215 -76.5q-25 -23 -39 -35t-21 -22.5t-11.5 -22.5t-8.5 -33q-172 -16 -339 -31.5t-332 -33.5q6 -59 13 -123t13 -127q74 -8 117 -12.5t87 -4.5t102.5 2t160.5 6q6 -66 14.5 -131t14.5 -137 q-111 -6 -219.5 -14t-214.5 -19q0 -45 2 -91t6 -95h352t352 -4q0 -43 -2 -70.5t-9 -50t-21.5 -47.5t-36.5 -61q-217 -10 -429 -21.5t-429 -23.5q-37 25 -68 49q-14 154 -24.5 294t-12.5 278zM293 1696q45 57 77.5 97t59.5 70.5t53.5 56.5t58 53.5t76 63.5t105.5 85 q33 -41 60.5 -72t48 -61.5t35 -67.5t18.5 -88q-74 -49 -130.5 -105.5t-108.5 -115t-107.5 -117.5t-122.5 -115q-29 78 -58.5 158t-64.5 158z" />
<glyph unicode="&#xea;" horiz-adv-x="1157" d="M-45 1716q70 86 113 136.5t82.5 91.5t93 84.5t145.5 117.5q2 -4 31 -13t62.5 -19.5t62 -17.5t33.5 -3q90 -66 142 -104.5t94 -77.5t89 -91.5t127 -142.5q-41 -35 -71.5 -64.5t-60.5 -53t-65.5 -38t-89.5 -20.5q-66 86 -139.5 149.5t-148.5 127.5q-51 -45 -95.5 -93.5 t-88.5 -97.5t-91 -97t-102 -93q-29 82 -58.5 159.5t-64.5 159.5zM59 638q-2 140 6.5 282.5t30.5 296.5q98 37 226.5 65.5t260.5 35.5t258 -12.5t222 -76.5q-27 -23 -41 -35t-21.5 -22.5t-11.5 -23.5t-8 -34q-174 -16 -343 -32.5t-341 -34.5q4 -61 12 -125t15 -127 q76 -10 120.5 -14.5t89 -5.5t102.5 2t161 9q6 -70 15 -138t19 -136q-113 -6 -224 -14.5t-222 -18.5q0 -47 2 -93t6 -93q182 0 359.5 -3t355.5 -3q0 -43 -2 -72t-8 -53.5t-19.5 -49t-36.5 -61.5q-223 -10 -439 -21.5t-433 -27.5q-20 16 -37.5 28.5t-36.5 20.5 q-14 158 -24.5 302.5t-12.5 284.5z" />
<glyph unicode="&#xec;" horiz-adv-x="571" d="M-287 1853q43 27 75 51.5t64.5 43t69.5 29t88 10.5q41 -76 90.5 -135.5t102.5 -116t106 -114.5t103 -128q-78 -23 -159 -44.5t-159 -47.5q-78 74 -123 118t-80.5 86t-75 97t-102.5 151zM117 948.5q0 67.5 3 137t7 165.5q72 4 144.5 7.5t148.5 9.5q8 -184 15 -313.5 t10.5 -223.5t5.5 -164.5t2 -139.5t-1 -146.5t-3 -186.5q-39 -25 -71 -39t-64.5 -24.5t-68.5 -16.5t-85 -12q-12 215 -20.5 365.5t-13.5 257t-7 181.5t-2 142.5z" />
<glyph unicode="&#xed;" horiz-adv-x="471" d="M56 966.5q1 67.5 3 139.5t7 170q74 4 149.5 6t149.5 6q10 -188 16 -318t10 -226.5t6 -168t3 -141t0 -148.5t-1 -190q-41 -25 -74.5 -41t-66.5 -26.5t-69 -16.5t-85 -10q-14 219 -23 372.5t-14.5 262t-8.5 185.5t-2 144.5zM203 1710q45 57 76.5 97t59.5 71t53.5 56.5 t57 53t76 62.5t105.5 84q31 -41 58.5 -70.5t49 -60.5t35.5 -68t19 -88q-74 -49 -131.5 -104t-110.5 -113.5t-107.5 -119t-121.5 -115.5q-29 80 -57.5 157.5t-61.5 157.5z" />
<glyph unicode="&#xf2;" horiz-adv-x="1314" d="M53 547q6 135 12.5 269t12.5 265q186 162 394 187.5t446 -49.5h16q74 -37 122 -64t78.5 -52.5t47 -54t27 -68.5t17.5 -96.5t19 -138.5q-4 -135 -9 -267t-11 -261q-119 -106 -241 -145t-257 -29q-66 -16 -131 -23.5t-143 -13.5q-113 55 -181.5 101.5t-110.5 102.5 t-64.5 135t-43.5 202zM106 1780q41 27 72 51t62.5 40.5t67.5 27t85 10.5q39 -72 87 -129.5t99.5 -111.5t102.5 -109.5t98 -122.5q-76 -23 -152.5 -45.5t-154.5 -47.5q-76 72 -119 114t-77.5 83t-72 94.5t-98.5 145.5zM295 952q4 -80 3 -161.5t4 -157.5t20.5 -142.5 t52.5 -115.5t100.5 -78t163.5 -29q31 8 49.5 13.5t34.5 7.5t36.5 2t57.5 -2q4 -10 8 -18.5t9 -14.5q35 41 70.5 87t68.5 85t61.5 65.5t48.5 30.5q-4 94 -10 174t-27.5 140.5t-62.5 103t-117 62.5q0 -4 -2 -9.5t-2 -11.5q-51 -18 -88 -24.5t-68.5 -3.5t-65.5 14.5t-81 29.5 q-68 -12 -133.5 -21t-130.5 -26z" />
<glyph unicode="&#xf3;" horiz-adv-x="1320" d="M49 545q6 135 12.5 270t12.5 266q94 82 193.5 129t205 62.5t217 1.5t230.5 -53h16q111 -57 167 -92t82.5 -79t36 -113t27.5 -192q-4 -135 -9 -268t-11 -266q-119 -106 -242 -145t-258 -29q-68 -16 -134 -23.5t-142 -13.5q-113 55 -182.5 101t-112.5 103.5t-65.5 137.5 t-43.5 203zM293 952q4 -80 3 -162.5t3 -158.5t19.5 -143.5t53.5 -116.5t101.5 -78t165.5 -29q31 8 49.5 13.5t34.5 7.5t36.5 2t57.5 -2q4 -10 8 -18.5t9 -14.5q35 41 71.5 87t70.5 85t62.5 65.5t48.5 30.5q-4 96 -10 176t-27.5 141.5t-64.5 103.5t-119 65q0 -4 -2 -9.5 t-2 -11.5q-51 -18 -88 -25.5t-68.5 -4.5t-66.5 15.5t-82 30.5q-66 -12 -132.5 -22t-131.5 -27zM565 1659q43 55 75 94t57.5 68.5t50 54.5t55.5 51.5t72 59t98 79.5q31 -41 56.5 -69.5t46 -58t33.5 -63.5t17 -85q-68 -47 -122 -99.5t-104 -108.5t-101 -112.5t-115 -107.5 q-31 74 -59.5 149.5t-59.5 147.5z" />
<glyph unicode="&#xf4;" d="M74 547l12 270t12 268q94 82 194.5 129.5t206 62.5t217 1t232.5 -53h17q74 -39 123 -65.5t79.5 -52.5t47 -54.5t26.5 -68.5t17.5 -97.5t19.5 -138.5q-4 -135 -9 -269.5t-12 -265.5q-121 -109 -243.5 -147.5t-257.5 -28.5q-68 -16 -134.5 -23.5t-144.5 -13.5 q-113 57 -182.5 103.5t-112.5 103.5t-65.5 137t-42.5 203zM143 1671q66 84 106 132t79 87t90 82t141 115q2 -4 29.5 -13.5t59.5 -18.5t59.5 -16t31.5 -5q86 -61 136.5 -99.5t91.5 -75t86 -87t121 -138.5q-39 -33 -68 -61.5t-57.5 -50t-63.5 -37t-86 -23.5q-59 86 -132 147.5 t-144 121.5q-49 -43 -92.5 -89.5t-84 -94.5t-86 -94t-96.5 -89q-31 78 -60.5 153.5t-60.5 153.5zM319 954q4 -80 3.5 -162.5t3.5 -158.5t19 -143.5t53 -116.5t101.5 -78t166.5 -29q31 8 49 13.5t34.5 7.5t38 2t58.5 -2q4 -10 8 -18.5t8 -14.5q35 41 72 87t69.5 85t61.5 65.5 t49 30.5q-4 96 -10 176t-27.5 141.5t-63.5 103.5t-118 65q0 -4 -2 -9.5t-2 -11.5q-53 -18 -89 -25.5t-69 -4t-67.5 15.5t-81.5 31q-68 -12 -134.5 -22.5t-130.5 -27.5z" />
<glyph unicode="&#xf5;" horiz-adv-x="1357" d="M74 547l12 270t12 268q94 82 194.5 129.5t206 62.5t217 1t232.5 -53h17q74 -39 123 -65.5t79.5 -52.5t47 -54.5t26.5 -68.5t17.5 -97.5t19.5 -138.5q-4 -135 -9 -269.5t-12 -265.5q-121 -109 -243.5 -147.5t-257.5 -28.5q-68 -16 -134.5 -23.5t-144.5 -13.5 q-113 57 -182.5 103.5t-112.5 103.5t-65.5 137t-42.5 203zM299 1368q31 74 57.5 147.5t55.5 153.5q104 16 165.5 25.5t114.5 11.5t118.5 -1t176.5 -11q-4 -49 -3 -88t-4 -74t-17.5 -70t-42.5 -73q-84 12 -160 9t-152 -11.5t-151.5 -15.5t-157.5 -3zM319 954 q4 -80 3.5 -162.5t3.5 -158.5t19 -143.5t53 -116.5t101.5 -78t166.5 -29q31 8 49 13.5t34.5 7.5t38 2t58.5 -2q4 -10 8 -18.5t8 -14.5q35 41 72 87t69.5 85t61.5 65.5t49 30.5q-4 96 -10 176t-27.5 141.5t-63.5 103.5t-118 65q0 -4 -2 -9.5t-2 -11.5q-53 -18 -89 -25.5 t-69 -4t-67.5 15.5t-81.5 31q-68 -12 -134.5 -22.5t-130.5 -27.5z" />
<glyph unicode="&#xf9;" d="M-113 1659q31 41 52.5 74.5t44 62.5t53.5 50.5t78 37.5q66 -55 133 -93t136 -71.5t138.5 -69.5t139.5 -85q-68 -47 -132.5 -94.5t-132.5 -100.5q-98 41 -155.5 66.5t-104.5 52.5t-102.5 64.5t-147.5 105.5zM56 1049.5q1 23.5 1 54.5q84 29 130 44t72 20.5t39 4t32 -7.5 q45 -215 95 -426t97 -422q131 -35 213 -25.5t126 50.5t56.5 108.5t6.5 150.5t-26.5 176t-41 183.5t-36 172t-13.5 145.5q49 14 91 21.5t84 7.5t86 -4.5t95 -8.5q35 -164 72 -300t56.5 -250.5t15.5 -213t-49.5 -186.5t-140.5 -167t-257 -159q-115 -4 -224 -9t-222 -11 q-55 25 -109.5 48.5t-109.5 43.5q-35 223 -59.5 378t-40 257t-24 162.5t-12.5 99.5t-3 62.5z" />
<glyph unicode="&#xfa;" horiz-adv-x="1339" d="M55 1031.5q0 23.5 2 51.5q82 29 127 44.5t71 20.5t38 3t31 -8q45 -211 94 -418t96 -414q129 -35 209 -25.5t123 49.5t55 106.5t5 148.5t-26.5 172t-39 179t-34.5 170t-13 142q47 14 89 21.5t83 7.5t84 -4t94 -8q35 -160 70.5 -293t55 -247t15.5 -210t-49 -182t-138 -164 t-253 -156q-111 -4 -218 -9t-218 -11q-109 49 -215 92q-35 219 -58.5 370.5t-39 252t-24 161t-12.5 97.5t-4 60.5zM459 1591q66 82 104.5 129t76.5 86t89 80t139 111q31 -39 56.5 -67.5t46 -58.5t35 -63.5t18.5 -83.5q-72 -49 -126 -103t-104.5 -110.5t-101.5 -113 t-114 -107.5q-29 74 -57.5 148.5t-61.5 152.5z" />
<glyph unicode="&#x2c6;" horiz-adv-x="755" d="M59 987q41 49 66 79t47.5 52.5t53 48t83.5 68.5q2 -2 17.5 -8t35 -11.5t36 -9.5t20.5 -2q51 -37 80.5 -59.5t54.5 -45t51.5 -53t73.5 -81.5q-25 -20 -42.5 -37t-34.5 -30t-37.5 -22.5t-51.5 -11.5q-37 49 -80 86t-86 72q-59 -51 -105 -108.5t-112 -110.5q-31 92 -70 184z " />
<glyph unicode="&#x2dc;" horiz-adv-x="944" d="M123 1386q6 49 7 90.5t7 78t21.5 71.5t48.5 74q82 -16 159.5 -15t154.5 7t156 12t163 0q-31 -78 -64 -152.5t-61 -152.5q-72 -10 -121 -17.5t-89 -10.5t-76 -4t-78 1t-96 6t-132 12z" />
<glyph unicode="&#x2000;" horiz-adv-x="1076" />
<glyph unicode="&#x2001;" horiz-adv-x="2152" />
<glyph unicode="&#x2002;" horiz-adv-x="1076" />
<glyph unicode="&#x2003;" horiz-adv-x="2152" />
<glyph unicode="&#x2004;" horiz-adv-x="717" />
<glyph unicode="&#x2005;" horiz-adv-x="538" />
<glyph unicode="&#x2006;" horiz-adv-x="358" />
<glyph unicode="&#x2007;" horiz-adv-x="358" />
<glyph unicode="&#x2008;" horiz-adv-x="269" />
<glyph unicode="&#x2009;" horiz-adv-x="430" />
<glyph unicode="&#x200a;" horiz-adv-x="119" />
<glyph unicode="&#x2010;" horiz-adv-x="1173" d="M133 621q143 8 243.5 15t172.5 10t122 5t94 1t91 -3t111 -4q4 -47 6 -97t6 -97q-125 -8 -211 -12.5t-148.5 -7.5t-109.5 -5t-92 -2t-96.5 1t-122.5 3q-18 27 -28.5 47.5t-18 42t-11.5 46t-8 57.5z" />
<glyph unicode="&#x2011;" horiz-adv-x="1173" d="M133 621q143 8 243.5 15t172.5 10t122 5t94 1t91 -3t111 -4q4 -47 6 -97t6 -97q-125 -8 -211 -12.5t-148.5 -7.5t-109.5 -5t-92 -2t-96.5 1t-122.5 3q-18 27 -28.5 47.5t-18 42t-11.5 46t-8 57.5z" />
<glyph unicode="&#x2012;" horiz-adv-x="1173" d="M133 621q143 8 243.5 15t172.5 10t122 5t94 1t91 -3t111 -4q4 -47 6 -97t6 -97q-125 -8 -211 -12.5t-148.5 -7.5t-109.5 -5t-92 -2t-96.5 1t-122.5 3q-18 27 -28.5 47.5t-18 42t-11.5 46t-8 57.5z" />
<glyph unicode="&#x2013;" horiz-adv-x="1179" d="M133 621q143 8 243.5 15t172.5 10t122 5t94 1t91 -3t111 -4q4 -47 6 -97t6 -97q-125 -8 -211 -12.5t-148.5 -7.5t-109.5 -5t-92 -2t-96.5 1t-122.5 3q-18 27 -28.5 47.5t-18 42t-11.5 46t-8 57.5z" />
<glyph unicode="&#x2014;" horiz-adv-x="1359" d="M27 645q211 6 358 13.5t252.5 9.5t179.5 4t138.5 1t134 -3t163.5 -2q6 -43 9.5 -89.5t9.5 -89.5q-184 -8 -311 -11t-219.5 -6t-161 -5t-135 -2t-141.5 1t-181 3q-27 25 -42 43t-25.5 37.5t-16.5 42t-12 53.5z" />
<glyph unicode="&#x2018;" horiz-adv-x="329" d="M43 1079q0 39 2 86t6 129l95 -10t83 -47q-8 -59 -8 -115.5t3 -111t5 -110.5t0 -116q-45 23 -86 46.5t-86 46.5q-6 74 -10 118.5t-4 83.5z" />
<glyph unicode="&#x2019;" horiz-adv-x="339" d="M55 1343q45 -18 87 -41.5t87 -44.5q8 -74 14.5 -117.5t6.5 -82.5v-86t-2 -129q-57 2 -95 6t-85 43q8 59 6 115.5t-7.5 110.5t-8.5 110.5t-3 115.5z" />
<glyph unicode="&#x201a;" horiz-adv-x="520" d="M109 -176q25 57 37 113.5t20 112.5t16 113.5t27 119.5q94 -74 197 -142q-6 -78 -11.5 -123t-13.5 -84.5t-22.5 -87t-39.5 -129.5q-35 12 -63.5 19.5t-54 17.5t-48 25.5t-44.5 44.5z" />
<glyph unicode="&#x201c;" horiz-adv-x="622" d="M76 1079q0 39 2 86t6 129l95 -10t83 -47q-8 -59 -8 -115.5t3 -111t5 -110.5t0 -116q-45 23 -86 46.5t-86 46.5q-6 74 -10 118.5t-4 83.5zM324 1079q0 39 2 86t6 129l95 -10t83 -47q-8 -59 -8 -115.5t3 -111t5 -110.5t0 -116q-45 23 -86 46.5t-86 46.5q-6 74 -10 118.5 t-4 83.5z" />
<glyph unicode="&#x201d;" horiz-adv-x="641" d="M86 825q10 59 12 115.5t0 111t-3 111t3 115.5q45 -25 85 -49.5t85 -48.5q4 -74 7.5 -119t2 -84t-4.5 -86t-9 -129q-57 8 -95 13t-83 50zM334 819q10 57 12 113.5t0 111t-3 111.5t3 115q45 -23 85 -47.5t85 -48.5q4 -74 7 -119t2 -84t-4 -86t-9 -129q-57 8 -95 13t-83 50z " />
<glyph unicode="&#x201e;" horiz-adv-x="1705" />
<glyph unicode="&#x2022;" horiz-adv-x="1705" d="M397 856q63 0 115.5 2t99.5 2t92.5 -9t102.5 -28l47 -360q-51 10 -94 4t-85 -18.5t-86 -20.5t-95 -2q-33 74 -51.5 120t-29 86t-11.5 88t-5 136z" />
<glyph unicode="&#x2026;" horiz-adv-x="1247" d="M68 281q39 0 70.5 1t60 1t56.5 -5.5t62 -17.5l29 -219q-31 6 -57.5 2t-52 -11t-52 -12.5t-57.5 -1.5q-20 45 -31.5 73t-17.5 52.5t-7 54.5t-3 83zM483 281q39 0 71 1t60.5 1t56 -5.5t62.5 -17.5l29 -219q-31 6 -57.5 2t-52 -11t-52.5 -12.5t-57 -1.5q-20 45 -31.5 73 t-18 52.5t-7.5 54.5t-3 83zM899 281q39 0 70.5 1t60.5 1t56.5 -5.5t62.5 -17.5l29 -219q-31 6 -57.5 2t-52.5 -11t-52.5 -12.5t-57.5 -1.5q-20 45 -31.5 73t-17.5 52.5t-7 54.5t-3 83z" />
<glyph unicode="&#x202f;" horiz-adv-x="430" />
<glyph unicode="&#x203a;" horiz-adv-x="1705" />
<glyph unicode="&#x205f;" horiz-adv-x="538" />
<glyph unicode="&#x25fc;" horiz-adv-x="1310" d="M0 0v1311h1311v-1311h-1311z" />
</font>
</defs>
</svg>
